<svg width="582" height="432" viewBox="0 0 582 432" fill="none" xmlns="http://www.w3.org/2000/svg">
<path d="M37.6602 391.61H581.176" stroke="#9FA7AA" stroke-width="2" stroke-miterlimit="10"/>
<path d="M39.0547 4.18066L39.0547 390.216" stroke="#9FA7AA" stroke-width="2" stroke-miterlimit="10"/>
<path d="M468.292 84.6211H412.547V391.22H468.292V84.6211Z" fill="#2E93F7"/>
<path d="M174.236 270.001H117.098V391.247H174.236V270.001Z" fill="#2E93F7"/>
<path d="M321.96 186.351H266.215V391.214H321.96V186.351Z" fill="#2E93F7"/>
<path d="M131.037 425H121.997V423.48L126.937 418.44C128.257 417.12 128.917 415.987 128.917 415.04C128.917 414.267 128.677 413.66 128.197 413.22C127.731 412.767 127.144 412.54 126.437 412.54C125.117 412.54 124.157 413.167 123.557 414.42L121.997 413.5C122.424 412.607 123.024 411.927 123.797 411.46C124.571 410.98 125.444 410.74 126.417 410.74C127.604 410.74 128.624 411.127 129.477 411.9C130.344 412.687 130.777 413.727 130.777 415.02C130.777 416.433 129.944 417.973 128.277 419.64L124.697 423.2H131.037V425ZM141.909 423.28C140.976 424.6 139.649 425.26 137.929 425.26C136.209 425.26 134.882 424.6 133.949 423.28C133.002 421.947 132.529 420.187 132.529 418C132.529 415.813 133.002 414.053 133.949 412.72C134.882 411.4 136.209 410.74 137.929 410.74C139.649 410.74 140.976 411.4 141.909 412.72C142.856 414.053 143.329 415.813 143.329 418C143.329 420.187 142.856 421.947 141.909 423.28ZM134.389 418C134.389 419.733 134.696 421.073 135.309 422.02C135.922 422.967 136.796 423.44 137.929 423.44C139.062 423.44 139.936 422.967 140.549 422.02C141.176 421.073 141.489 419.733 141.489 418C141.489 416.267 141.176 414.927 140.549 413.98C139.936 413.02 139.062 412.54 137.929 412.54C136.796 412.54 135.922 413.013 135.309 413.96C134.696 414.907 134.389 416.253 134.389 418ZM144.116 412.28L147.796 411H149.396V425H147.556V413L144.576 413.88L144.116 412.28ZM159.125 417.76C160.578 418.507 161.305 419.64 161.305 421.16C161.305 422.44 160.858 423.447 159.965 424.18C159.058 424.9 157.905 425.26 156.505 425.26C155.105 425.26 153.958 424.9 153.065 424.18C152.172 423.447 151.725 422.44 151.725 421.16C151.725 419.64 152.452 418.507 153.905 417.76C152.758 417.04 152.185 416.02 152.185 414.7C152.185 413.433 152.605 412.46 153.445 411.78C154.298 411.087 155.318 410.74 156.505 410.74C157.718 410.74 158.738 411.087 159.565 411.78C160.418 412.46 160.845 413.433 160.845 414.7C160.845 416.02 160.272 417.04 159.125 417.76ZM156.505 412.52C155.772 412.52 155.172 412.713 154.705 413.1C154.252 413.487 154.025 414.033 154.025 414.74C154.025 415.433 154.258 415.98 154.725 416.38C155.192 416.78 155.785 416.98 156.505 416.98C157.225 416.98 157.818 416.78 158.285 416.38C158.752 415.98 158.985 415.433 158.985 414.74C158.985 414.033 158.758 413.487 158.305 413.1C157.852 412.713 157.252 412.52 156.505 412.52ZM156.505 423.48C157.412 423.48 158.132 423.267 158.665 422.84C159.198 422.413 159.465 421.813 159.465 421.04C159.465 420.28 159.198 419.687 158.665 419.26C158.132 418.833 157.412 418.62 156.505 418.62C155.612 418.62 154.898 418.833 154.365 419.26C153.832 419.687 153.565 420.28 153.565 421.04C153.565 421.813 153.832 422.413 154.365 422.84C154.898 423.267 155.612 423.48 156.505 423.48Z" fill="black"/>
<path d="M280.156 425H271.116V423.48L276.056 418.44C277.376 417.12 278.036 415.987 278.036 415.04C278.036 414.267 277.796 413.66 277.316 413.22C276.85 412.767 276.263 412.54 275.556 412.54C274.236 412.54 273.276 413.167 272.676 414.42L271.116 413.5C271.543 412.607 272.143 411.927 272.916 411.46C273.69 410.98 274.563 410.74 275.536 410.74C276.723 410.74 277.743 411.127 278.596 411.9C279.463 412.687 279.896 413.727 279.896 415.02C279.896 416.433 279.063 417.973 277.396 419.64L273.816 423.2H280.156V425ZM291.028 423.28C290.095 424.6 288.768 425.26 287.048 425.26C285.328 425.26 284.001 424.6 283.068 423.28C282.121 421.947 281.648 420.187 281.648 418C281.648 415.813 282.121 414.053 283.068 412.72C284.001 411.4 285.328 410.74 287.048 410.74C288.768 410.74 290.095 411.4 291.028 412.72C291.975 414.053 292.448 415.813 292.448 418C292.448 420.187 291.975 421.947 291.028 423.28ZM283.508 418C283.508 419.733 283.815 421.073 284.428 422.02C285.041 422.967 285.915 423.44 287.048 423.44C288.181 423.44 289.055 422.967 289.668 422.02C290.295 421.073 290.608 419.733 290.608 418C290.608 416.267 290.295 414.927 289.668 413.98C289.055 413.02 288.181 412.54 287.048 412.54C285.915 412.54 285.041 413.013 284.428 413.96C283.815 414.907 283.508 416.253 283.508 418ZM293.235 412.28L296.915 411H298.515V425H296.675V413L293.695 413.88L293.235 412.28ZM310.284 415.44C310.284 416.533 309.997 417.473 309.424 418.26H309.444L304.924 425H302.824L306.144 420.1C305.744 420.127 305.517 420.14 305.464 420.14C304.051 420.14 302.891 419.707 301.984 418.84C301.091 417.96 300.644 416.827 300.644 415.44C300.644 414.04 301.091 412.913 301.984 412.06C302.877 411.18 304.037 410.74 305.464 410.74C306.864 410.74 308.017 411.18 308.924 412.06C309.831 412.927 310.284 414.053 310.284 415.44ZM305.464 412.52C304.584 412.52 303.864 412.787 303.304 413.32C302.757 413.853 302.484 414.56 302.484 415.44C302.484 416.32 302.757 417.033 303.304 417.58C303.864 418.113 304.584 418.38 305.464 418.38C306.344 418.38 307.057 418.113 307.604 417.58C308.164 417.033 308.444 416.32 308.444 415.44C308.444 414.56 308.171 413.853 307.624 413.32C307.077 412.787 306.357 412.52 305.464 412.52Z" fill="black"/>
<path d="M428.074 425H419.034V423.48L423.974 418.44C425.294 417.12 425.954 415.987 425.954 415.04C425.954 414.267 425.714 413.66 425.234 413.22C424.768 412.767 424.181 412.54 423.474 412.54C422.154 412.54 421.194 413.167 420.594 414.42L419.034 413.5C419.461 412.607 420.061 411.927 420.834 411.46C421.608 410.98 422.481 410.74 423.454 410.74C424.641 410.74 425.661 411.127 426.514 411.9C427.381 412.687 427.814 413.727 427.814 415.02C427.814 416.433 426.981 417.973 425.314 419.64L421.734 423.2H428.074V425ZM438.946 423.28C438.013 424.6 436.686 425.26 434.966 425.26C433.246 425.26 431.919 424.6 430.986 423.28C430.039 421.947 429.566 420.187 429.566 418C429.566 415.813 430.039 414.053 430.986 412.72C431.919 411.4 433.246 410.74 434.966 410.74C436.686 410.74 438.013 411.4 438.946 412.72C439.893 414.053 440.366 415.813 440.366 418C440.366 420.187 439.893 421.947 438.946 423.28ZM431.426 418C431.426 419.733 431.733 421.073 432.346 422.02C432.959 422.967 433.833 423.44 434.966 423.44C436.099 423.44 436.973 422.967 437.586 422.02C438.213 421.073 438.526 419.733 438.526 418C438.526 416.267 438.213 414.927 437.586 413.98C436.973 413.02 436.099 412.54 434.966 412.54C433.833 412.54 432.959 413.013 432.346 413.96C431.733 414.907 431.426 416.253 431.426 418ZM450.77 425H441.73V423.48L446.67 418.44C447.99 417.12 448.65 415.987 448.65 415.04C448.65 414.267 448.41 413.66 447.93 413.22C447.463 412.767 446.876 412.54 446.17 412.54C444.85 412.54 443.89 413.167 443.29 414.42L441.73 413.5C442.156 412.607 442.756 411.927 443.53 411.46C444.303 410.98 445.176 410.74 446.15 410.74C447.336 410.74 448.356 411.127 449.21 411.9C450.076 412.687 450.51 413.727 450.51 415.02C450.51 416.433 449.676 417.973 448.01 419.64L444.43 423.2H450.77V425ZM461.641 423.28C460.708 424.6 459.381 425.26 457.661 425.26C455.941 425.26 454.615 424.6 453.681 423.28C452.735 421.947 452.261 420.187 452.261 418C452.261 415.813 452.735 414.053 453.681 412.72C454.615 411.4 455.941 410.74 457.661 410.74C459.381 410.74 460.708 411.4 461.641 412.72C462.588 414.053 463.061 415.813 463.061 418C463.061 420.187 462.588 421.947 461.641 423.28ZM454.121 418C454.121 419.733 454.428 421.073 455.041 422.02C455.655 422.967 456.528 423.44 457.661 423.44C458.795 423.44 459.668 422.967 460.281 422.02C460.908 421.073 461.221 419.733 461.221 418C461.221 416.267 460.908 414.927 460.281 413.98C459.668 413.02 458.795 412.54 457.661 412.54C456.528 412.54 455.655 413.013 455.041 413.96C454.428 414.907 454.121 416.253 454.121 418Z" fill="black"/>
<path d="M16.28 388.773C15.3467 390.093 14.02 390.753 12.3 390.753C10.58 390.753 9.25333 390.093 8.32 388.773C7.37333 387.44 6.9 385.68 6.9 383.493C6.9 381.306 7.37333 379.546 8.32 378.213C9.25333 376.893 10.58 376.233 12.3 376.233C14.02 376.233 15.3467 376.893 16.28 378.213C17.2267 379.546 17.7 381.306 17.7 383.493C17.7 385.68 17.2267 387.44 16.28 388.773ZM8.76 383.493C8.76 385.226 9.06667 386.566 9.68 387.513C10.2933 388.46 11.1667 388.933 12.3 388.933C13.4333 388.933 14.3067 388.46 14.92 387.513C15.5467 386.566 15.86 385.226 15.86 383.493C15.86 381.76 15.5467 380.42 14.92 379.473C14.3067 378.513 13.4333 378.033 12.3 378.033C11.1667 378.033 10.2933 378.506 9.68 379.453C9.06667 380.4 8.76 381.746 8.76 383.493Z" fill="black"/>
<path d="M10.36 288.58H12.4C13.72 288.58 14.8333 288.973 15.74 289.76C16.66 290.547 17.12 291.62 17.12 292.98C17.12 294.353 16.6533 295.427 15.72 296.2C14.7733 296.987 13.64 297.38 12.32 297.38C11.2267 297.38 10.26 297.12 9.42 296.6C8.59333 296.067 8.02 295.327 7.7 294.38L9.28 293.48C9.46667 294.147 9.82667 294.66 10.36 295.02C10.8933 295.38 11.5467 295.56 12.32 295.56C13.2133 295.56 13.9267 295.333 14.46 294.88C15.0067 294.413 15.28 293.78 15.28 292.98C15.28 292.18 15.0067 291.547 14.46 291.08C13.9267 290.613 13.2267 290.38 12.36 290.38H8.4L8.92 283.12H16.58V284.86H10.6L10.36 288.58Z" fill="black"/>
<path d="M2.28 189.633L5.96 188.353H7.56V202.353H5.72V190.353L2.74 191.233L2.28 189.633ZM19.4089 200.633C18.4756 201.953 17.1489 202.613 15.4289 202.613C13.7089 202.613 12.3822 201.953 11.4489 200.633C10.5022 199.299 10.0289 197.539 10.0289 195.353C10.0289 193.166 10.5022 191.406 11.4489 190.073C12.3822 188.753 13.7089 188.093 15.4289 188.093C17.1489 188.093 18.4756 188.753 19.4089 190.073C20.3556 191.406 20.8289 193.166 20.8289 195.353C20.8289 197.539 20.3556 199.299 19.4089 200.633ZM11.8889 195.353C11.8889 197.086 12.1956 198.426 12.8089 199.373C13.4222 200.319 14.2956 200.793 15.4289 200.793C16.5622 200.793 17.4356 200.319 18.0489 199.373C18.6756 198.426 18.9889 197.086 18.9889 195.353C18.9889 193.619 18.6756 192.279 18.0489 191.333C17.4356 190.373 16.5622 189.893 15.4289 189.893C14.2956 189.893 13.4222 190.366 12.8089 191.313C12.1956 192.259 11.8889 193.606 11.8889 195.353Z" fill="black"/>
<path d="M3.28 97.653L6.96 96.373H8.56V110.373H6.72V98.373L3.74 99.253L3.28 97.653ZM13.4889 101.833H15.5289C16.8489 101.833 17.9622 102.226 18.8689 103.013C19.7889 103.8 20.2489 104.873 20.2489 106.233C20.2489 107.606 19.7822 108.68 18.8489 109.453C17.9022 110.24 16.7689 110.633 15.4489 110.633C14.3556 110.633 13.3889 110.373 12.5489 109.853C11.7222 109.32 11.1489 108.58 10.8289 107.633L12.4089 106.733C12.5956 107.4 12.9556 107.913 13.4889 108.273C14.0222 108.633 14.6756 108.813 15.4489 108.813C16.3422 108.813 17.0556 108.586 17.5889 108.133C18.1356 107.666 18.4089 107.033 18.4089 106.233C18.4089 105.433 18.1356 104.8 17.5889 104.333C17.0556 103.866 16.3556 103.633 15.4889 103.633H11.5289L12.0489 96.373H19.7089V98.113H13.7289L13.4889 101.833Z" fill="black"/>
<path d="M9.76 17H0.72V15.48L5.66 10.44C6.98 9.12 7.64 7.98667 7.64 7.04C7.64 6.26667 7.4 5.66 6.92 5.22C6.45333 4.76667 5.86667 4.54 5.16 4.54C3.84 4.54 2.88 5.16667 2.28 6.42L0.72 5.5C1.14667 4.60667 1.74667 3.92667 2.52 3.46C3.29333 2.98 4.16667 2.74 5.14 2.74C6.32667 2.74 7.34667 3.12667 8.2 3.9C9.06667 4.68667 9.5 5.72667 9.5 7.02C9.5 8.43333 8.66667 9.97333 7 11.64L3.42 15.2H9.76V17ZM20.6316 15.28C19.6982 16.6 18.3716 17.26 16.6516 17.26C14.9316 17.26 13.6049 16.6 12.6716 15.28C11.7249 13.9467 11.2516 12.1867 11.2516 10C11.2516 7.81333 11.7249 6.05333 12.6716 4.72C13.6049 3.4 14.9316 2.74 16.6516 2.74C18.3716 2.74 19.6982 3.4 20.6316 4.72C21.5782 6.05333 22.0516 7.81333 22.0516 10C22.0516 12.1867 21.5782 13.9467 20.6316 15.28ZM13.1116 10C13.1116 11.7333 13.4182 13.0733 14.0316 14.02C14.6449 14.9667 15.5182 15.44 16.6516 15.44C17.7849 15.44 18.6582 14.9667 19.2716 14.02C19.8982 13.0733 20.2116 11.7333 20.2116 10C20.2116 8.26667 19.8982 6.92667 19.2716 5.98C18.6582 5.02 17.7849 4.54 16.6516 4.54C15.5182 4.54 14.6449 5.01333 14.0316 5.96C13.4182 6.90667 13.1116 8.25333 13.1116 10Z" fill="black"/>
<path d="M120.234 242.57L123.546 241.4H125.346V254H123.276V243.614L120.738 244.334L120.234 242.57ZM135.853 254H127.555V252.38L131.947 247.898C133.015 246.83 133.549 245.906 133.549 245.126C133.549 244.526 133.369 244.052 133.009 243.704C132.649 243.356 132.181 243.182 131.605 243.182C130.549 243.182 129.769 243.704 129.265 244.748L127.519 243.722C127.903 242.894 128.455 242.264 129.175 241.832C129.895 241.388 130.699 241.166 131.587 241.166C132.703 241.166 133.651 241.514 134.431 242.21C135.223 242.918 135.619 243.866 135.619 245.054C135.619 246.326 134.905 247.694 133.477 249.158L130.633 252.002H135.853V254ZM139.129 251.516C139.501 251.516 139.819 251.648 140.083 251.912C140.347 252.176 140.479 252.494 140.479 252.866C140.479 253.238 140.347 253.556 140.083 253.82C139.819 254.084 139.501 254.216 139.129 254.216C138.757 254.216 138.439 254.084 138.175 253.82C137.911 253.556 137.779 253.238 137.779 252.866C137.779 252.494 137.905 252.176 138.157 251.912C138.421 251.648 138.745 251.516 139.129 251.516ZM145.078 246.152H146.662C147.863 246.152 148.877 246.512 149.705 247.232C150.532 247.94 150.946 248.924 150.946 250.184C150.946 251.444 150.52 252.434 149.669 253.154C148.828 253.874 147.784 254.234 146.536 254.234C145.516 254.234 144.628 254 143.872 253.532C143.116 253.064 142.576 252.398 142.252 251.534L144.034 250.508C144.382 251.648 145.216 252.218 146.536 252.218C147.244 252.218 147.808 252.038 148.228 251.678C148.661 251.306 148.877 250.808 148.877 250.184C148.877 249.572 148.667 249.086 148.246 248.726C147.826 248.354 147.268 248.168 146.572 248.168H142.9L143.386 241.4H150.406V243.344H145.294L145.078 246.152ZM151.74 243.38V241.4H159.75V243.2L155.322 254H153.144L157.5 243.38H151.74ZM166.534 241.994C167.098 242.558 167.38 243.242 167.38 244.046C167.38 244.85 167.098 245.534 166.534 246.098C165.982 246.65 165.286 246.926 164.446 246.926C163.594 246.926 162.892 246.65 162.34 246.098C161.776 245.534 161.494 244.85 161.494 244.046C161.494 243.254 161.776 242.576 162.34 242.012C162.904 241.448 163.606 241.166 164.446 241.166C165.286 241.166 165.982 241.442 166.534 241.994ZM164.428 245.342C164.812 245.342 165.124 245.222 165.364 244.982C165.604 244.73 165.724 244.418 165.724 244.046C165.724 243.674 165.604 243.362 165.364 243.11C165.124 242.858 164.812 242.732 164.428 242.732C164.056 242.732 163.75 242.858 163.51 243.11C163.27 243.362 163.15 243.674 163.15 244.046C163.15 244.406 163.27 244.712 163.51 244.964C163.762 245.216 164.068 245.342 164.428 245.342ZM163.528 252.722L162.556 252.146L170.854 242.912L171.826 243.47L163.528 252.722ZM170.206 254.216C169.354 254.216 168.652 253.94 168.1 253.388C167.536 252.824 167.254 252.14 167.254 251.336C167.254 250.544 167.536 249.866 168.1 249.302C168.664 248.738 169.366 248.456 170.206 248.456C171.034 248.456 171.73 248.738 172.294 249.302C172.858 249.866 173.14 250.544 173.14 251.336C173.14 252.14 172.858 252.824 172.294 253.388C171.742 253.94 171.046 254.216 170.206 254.216ZM170.188 252.632C170.572 252.632 170.884 252.512 171.124 252.272C171.364 252.02 171.484 251.708 171.484 251.336C171.484 250.964 171.364 250.652 171.124 250.4C170.884 250.148 170.572 250.022 170.188 250.022C169.816 250.022 169.51 250.148 169.27 250.4C169.03 250.652 168.91 250.964 168.91 251.336C168.91 251.696 169.03 252.002 169.27 252.254C169.522 252.506 169.828 252.632 170.188 252.632Z" fill="black"/>
<path d="M271.234 158.57L274.546 157.4H276.346V170H274.276V159.614L271.738 160.334L271.234 158.57ZM286.565 159.164L284.009 162.548C284.945 162.764 285.689 163.196 286.241 163.844C286.805 164.48 287.087 165.26 287.087 166.184C287.087 167.444 286.661 168.434 285.809 169.154C284.969 169.874 283.925 170.234 282.677 170.234C281.693 170.234 280.823 170.012 280.067 169.568C279.311 169.112 278.771 168.464 278.447 167.624L280.211 166.598C280.583 167.678 281.405 168.218 282.677 168.218C283.397 168.218 283.967 168.038 284.387 167.678C284.807 167.306 285.017 166.808 285.017 166.184C285.017 165.56 284.807 165.068 284.387 164.708C283.967 164.348 283.397 164.168 282.677 164.168H282.209L281.381 162.926L284.099 159.344H278.825V157.4H286.565V159.164ZM289.97 167.516C290.342 167.516 290.66 167.648 290.924 167.912C291.188 168.176 291.32 168.494 291.32 168.866C291.32 169.238 291.188 169.556 290.924 169.82C290.66 170.084 290.342 170.216 289.97 170.216C289.598 170.216 289.28 170.084 289.016 169.82C288.752 169.556 288.62 169.238 288.62 168.866C288.62 168.494 288.746 168.176 288.998 167.912C289.262 167.648 289.586 167.516 289.97 167.516ZM295.92 162.152H297.504C298.704 162.152 299.718 162.512 300.546 163.232C301.374 163.94 301.788 164.924 301.788 166.184C301.788 167.444 301.362 168.434 300.51 169.154C299.67 169.874 298.626 170.234 297.378 170.234C296.358 170.234 295.47 170 294.714 169.532C293.958 169.064 293.418 168.398 293.094 167.534L294.876 166.508C295.224 167.648 296.058 168.218 297.378 168.218C298.086 168.218 298.65 168.038 299.07 167.678C299.502 167.306 299.718 166.808 299.718 166.184C299.718 165.572 299.508 165.086 299.088 164.726C298.668 164.354 298.11 164.168 297.414 164.168H293.742L294.228 157.4H301.248V159.344H296.136L295.92 162.152ZM308.251 157.994C308.815 158.558 309.097 159.242 309.097 160.046C309.097 160.85 308.815 161.534 308.251 162.098C307.699 162.65 307.003 162.926 306.163 162.926C305.311 162.926 304.609 162.65 304.057 162.098C303.493 161.534 303.211 160.85 303.211 160.046C303.211 159.254 303.493 158.576 304.057 158.012C304.621 157.448 305.323 157.166 306.163 157.166C307.003 157.166 307.699 157.442 308.251 157.994ZM306.145 161.342C306.529 161.342 306.841 161.222 307.081 160.982C307.321 160.73 307.441 160.418 307.441 160.046C307.441 159.674 307.321 159.362 307.081 159.11C306.841 158.858 306.529 158.732 306.145 158.732C305.773 158.732 305.467 158.858 305.227 159.11C304.987 159.362 304.867 159.674 304.867 160.046C304.867 160.406 304.987 160.712 305.227 160.964C305.479 161.216 305.785 161.342 306.145 161.342ZM305.245 168.722L304.273 168.146L312.571 158.912L313.543 159.47L305.245 168.722ZM311.923 170.216C311.071 170.216 310.369 169.94 309.817 169.388C309.253 168.824 308.971 168.14 308.971 167.336C308.971 166.544 309.253 165.866 309.817 165.302C310.381 164.738 311.083 164.456 311.923 164.456C312.751 164.456 313.447 164.738 314.011 165.302C314.575 165.866 314.857 166.544 314.857 167.336C314.857 168.14 314.575 168.824 314.011 169.388C313.459 169.94 312.763 170.216 311.923 170.216ZM311.905 168.632C312.289 168.632 312.601 168.512 312.841 168.272C313.081 168.02 313.201 167.708 313.201 167.336C313.201 166.964 313.081 166.652 312.841 166.4C312.601 166.148 312.289 166.022 311.905 166.022C311.533 166.022 311.227 166.148 310.987 166.4C310.747 166.652 310.627 166.964 310.627 167.336C310.627 167.696 310.747 168.002 310.987 168.254C311.239 168.506 311.545 168.632 311.905 168.632Z" fill="black"/>
<path d="M417.234 56.7409L420.546 55.5709H422.346V68.1709H420.276V57.7849L417.738 58.5049L417.234 56.7409ZM432.691 63.9769H434.131V65.9029H432.691V68.1709H430.603V65.9029H424.411V63.9769L428.749 55.5709H430.999L426.661 63.9769H430.603V60.7009H432.691V63.9769ZM437.043 65.6869C437.415 65.6869 437.733 65.8189 437.997 66.0829C438.261 66.3469 438.393 66.6649 438.393 67.0369C438.393 67.4089 438.261 67.7269 437.997 67.9909C437.733 68.2549 437.415 68.3869 437.043 68.3869C436.671 68.3869 436.353 68.2549 436.089 67.9909C435.825 67.7269 435.693 67.4089 435.693 67.0369C435.693 66.6649 435.819 66.3469 436.071 66.0829C436.335 65.8189 436.659 65.6869 437.043 65.6869ZM439.897 57.5509V55.5709H447.907V57.3709L443.479 68.1709H441.301L445.657 57.5509H439.897ZM454.691 56.1649C455.255 56.7289 455.537 57.4129 455.537 58.2169C455.537 59.0209 455.255 59.7049 454.691 60.2689C454.139 60.8209 453.443 61.0969 452.603 61.0969C451.751 61.0969 451.049 60.8209 450.497 60.2689C449.933 59.7049 449.651 59.0209 449.651 58.2169C449.651 57.4249 449.933 56.7469 450.497 56.1829C451.061 55.6189 451.763 55.3369 452.603 55.3369C453.443 55.3369 454.139 55.6129 454.691 56.1649ZM452.585 59.5129C452.969 59.5129 453.281 59.3929 453.521 59.1529C453.761 58.9009 453.881 58.5889 453.881 58.2169C453.881 57.8449 453.761 57.5329 453.521 57.2809C453.281 57.0289 452.969 56.9029 452.585 56.9029C452.213 56.9029 451.907 57.0289 451.667 57.2809C451.427 57.5329 451.307 57.8449 451.307 58.2169C451.307 58.5769 451.427 58.8829 451.667 59.1349C451.919 59.3869 452.225 59.5129 452.585 59.5129ZM451.685 66.8929L450.713 66.3169L459.011 57.0829L459.983 57.6409L451.685 66.8929ZM458.363 68.3869C457.511 68.3869 456.809 68.1109 456.257 67.5589C455.693 66.9949 455.411 66.3109 455.411 65.5069C455.411 64.7149 455.693 64.0369 456.257 63.4729C456.821 62.9089 457.523 62.6269 458.363 62.6269C459.191 62.6269 459.887 62.9089 460.451 63.4729C461.015 64.0369 461.297 64.7149 461.297 65.5069C461.297 66.3109 461.015 66.9949 460.451 67.5589C459.899 68.1109 459.203 68.3869 458.363 68.3869ZM458.345 66.8029C458.729 66.8029 459.041 66.6829 459.281 66.4429C459.521 66.1909 459.641 65.8789 459.641 65.5069C459.641 65.1349 459.521 64.8229 459.281 64.5709C459.041 64.3189 458.729 64.1929 458.345 64.1929C457.973 64.1929 457.667 64.3189 457.427 64.5709C457.187 64.8229 457.067 65.1349 457.067 65.5069C457.067 65.8669 457.187 66.1729 457.427 66.4249C457.679 66.6769 457.985 66.8029 458.345 66.8029Z" fill="black"/>
</svg>
