<?xml version="1.0" encoding="utf-8"?>
<!-- Generator: Adobe Illustrator 26.1.0, SVG Export Plug-In . SVG Version: 6.00 Build 0)  -->
<svg version="1.1" id="Layer_1" xmlns="http://www.w3.org/2000/svg" xmlns:xlink="http://www.w3.org/1999/xlink" x="0px" y="0px"
	 viewBox="0 0 1110 428" style="enable-background:new 0 0 1110 428;" xml:space="preserve">
<style type="text/css">
	.st0{fill:#EEA886;}
	.st1{fill:#67B3FE;}
	.st2{fill:#F3F3F3;}
	.st3{fill:#E0E0E0;}
	.st4{fill:#DBDBDB;}
	.st5{fill:#C7C7C7;}
	.st6{fill:#2E2626;}
	.st7{fill:#FA7126;}
	.st8{fill:#D9D3D3;}
	.st9{fill:#DB9C7C;}
	.st10{fill:#283B4A;}
	.st11{fill:#EEA987;}
	.st12{fill:#665249;}
	.st13{fill:#FAB546;}
	.st14{fill:#A77860;}
	.st15{fill:#BDC0CF;}
	.st16{fill:#A0A4B0;}
	.st17{fill:#8B8E99;}
	.st18{fill:#E9EDFF;}
	.st19{fill:#B5B9C7;}
	.st20{fill:#9295A1;}
	.st21{fill:#CACEDE;}
	.st22{fill:#DBDFF0;}
	.st23{fill:#163342;}
	.st24{fill:#2F6B8C;}
	.st25{fill:#4F7594;}
	.st26{fill:#446580;}
	.st27{fill:#8A664D;}
	.st28{fill:#4A3F3F;}
	.st29{fill:#CF8C6C;}
	.st30{fill:#C6CAD9;}
	.st31{fill:#F0DFD6;}
	.st32{fill:#293C4D;}
	.st33{fill:#385369;}
	.st34{fill:#202338;}
	.st35{fill:#754836;}
	.st36{fill:#2C4152;}
	.st37{fill:#D1D1D1;}
	.st38{fill:#A0CC83;}
	.st39{fill:#EBEBEB;}
	.st40{fill:#B3B6C4;}
	.st41{fill:#D88A51;}
	.st42{fill:#2E91F7;fill-opacity:9.000000e-02;}
</style>
<g>
	<path class="st0" d="M433.5,109.3c0,0-1.7-5.1-1.9-5.9c-0.2-0.8,0.5-2.9,1.7-5.3c1.1-2.4,3.8-5.2,4.3-5.3c0.5-0.1,0.9-0.4,2.1,0.1
		c0.7,0.3,1.3,0.9,1.7,1.6c0,0,1.8,0,2.5,1.3c0.5,0.1,1,0.3,1.3,0.6c0.4,0.3,0.7,0.7,0.8,1.2c0,0,1.6-0.1,1.9,1.1c0,0-0.8,2.2-0.8,3
		c0,0.9-2.4,5-5,9C442,110.6,439.9,115.3,433.5,109.3z"/>
	<path class="st1" d="M441.6,111.6c0,0-9.6,27-13.9,31.1c-2,2-4.9,2.7-11.8-0.3c-2.3-1-5.1-2.8-8-4.9c-1-0.7-1.9-1.4-2.9-2.2
		c-0.2-0.2-0.5-0.4-0.7-0.5c-0.9-0.7-1.9-1.5-2.8-2.2c-4.6-3.8-8.4-7.3-8.9-7.9c-0.9-1.2-17.1-9.9-7.3-17.7
		c2.2-1.8,10.9-6.3,16.6-1.6c5,4.2,8,12.6,9.4,14.4c1.4,1.8,8.2,9.8,8.2,9.8c0.4,0.7,5.6-7.2,6-8.1c1.5-4.2,6-13.9,6-13.9
		L441.6,111.6z"/>
	<path class="st2" d="M405.9,165.6c-1,0-1.9-0.1-2.8-0.4c-4.5-1.2-8.9-5.2-13.1-11.8c-4.6-7.3-8.6-17.6-12-30.6
		c-1.4-5.1-0.5-10.5,2.3-15.1c2.7-4.3,6.9-7.5,11.6-8.6c5.1-1.2,10.3,0.1,14.7,3.7c5.1,4.1,9,11,11.6,20.5
		c2.3,8.3,2.9,16.6,1.8,23.9c-1,6.8-3.5,12.3-7,15.5C411,164.6,408.5,165.6,405.9,165.6z M395.7,100.9c-1.1,0-2.1,0.1-3.2,0.4
		c-7.9,1.8-14.9,10.9-12.3,21c3.4,12.8,7.3,22.9,11.8,30c3.8,6,7.8,9.8,11.7,10.8c2.8,0.8,5.4,0.1,7.8-2c3.1-2.8,5.4-7.9,6.3-14.2
		c1-7,0.4-15-1.8-23.1c-2.4-8.9-6.2-15.6-10.9-19.4C401.7,101.8,398.4,100.9,395.7,100.9L395.7,100.9z"/>
	<path class="st3" d="M407.5,167c-1,0-2-0.1-2.9-0.4c-4.5-1.3-8.9-5.3-12.9-11.9c-4.5-7.4-8.5-17.7-11.8-30.7
		c-1.3-5.1-0.4-10.5,2.4-15c2.7-4.3,7-7.4,11.7-8.5c5.1-1.1,10.3,0.2,14.7,3.8c5.1,4.2,8.9,11.1,11.4,20.6
		c2.2,8.4,2.8,16.6,1.6,23.9c-1.1,6.8-3.6,12.3-7.1,15.4C412.4,166.1,410,167,407.5,167z M397.6,102.3c-1,0-2.1,0.1-3.1,0.3
		c-7.9,1.8-15,10.8-12.5,20.9c3.2,12.8,7.1,22.9,11.5,30.1c3.7,6.1,7.7,9.9,11.6,10.9c2.8,0.8,5.4,0.1,7.8-2
		c3.1-2.8,5.4-7.8,6.4-14.1c1.1-7,0.6-15-1.6-23.1c-2.4-8.9-6-15.6-10.7-19.5C403.8,103.1,400.4,102.3,397.6,102.3L397.6,102.3z"/>
	<path class="st4" d="M402.1,167.3c-1.2,0-2.5-0.2-3.6-0.6c-4.4-1.6-8.4-5.9-11.9-12.9c-3.9-7.7-6.9-18.3-9.1-31.5
		c-0.9-5.2,0.5-10.5,3.7-14.8c3.1-4.1,7.6-6.9,12.4-7.6c5.2-0.8,10.3,1,14.3,4.9c4.7,4.5,7.9,11.7,9.6,21.3
		c1.5,8.5,1.3,16.8-0.5,23.9c-1.7,6.7-4.7,12-8.4,14.8C406.7,166.5,404.4,167.3,402.1,167.3z M396.2,102c-0.7,0-1.4,0-2.1,0.2
		c-8.1,1.2-15.9,9.6-14.2,19.9c2.1,13,5.1,23.4,8.9,30.9c3.2,6.3,6.9,10.4,10.6,11.8c2.7,1,5.4,0.5,7.9-1.4
		c3.4-2.5,6.1-7.4,7.6-13.6c1.7-6.9,1.9-14.9,0.4-23.1c-1.6-9.1-4.7-16-9-20.2C402.8,102.9,399.1,102,396.2,102L396.2,102z"/>
	<path class="st5" d="M399.7,168.6c-1.2,0-2.5-0.2-3.6-0.7c-4.4-1.6-8.4-5.9-11.9-12.9c-3.9-7.7-6.9-18.3-9.1-31.5
		c-0.9-5.2,0.5-10.5,3.7-14.8c3.1-4.1,7.6-6.9,12.4-7.6c5.2-0.8,10.3,1,14.3,4.9c4.7,4.5,7.9,11.7,9.6,21.3
		c1.5,8.5,1.3,16.8-0.5,23.9c-1.7,6.7-4.7,12-8.4,14.8C404.2,167.8,402,168.6,399.7,168.6z M377.5,123.3c2.1,13,5.1,23.4,8.9,30.9
		c3.2,6.3,6.9,10.4,10.6,11.8c2.7,1,5.4,0.5,7.9-1.4c3.4-2.5,6.1-7.4,7.6-13.6c1.7-6.9,1.9-14.9,0.4-23.1c-1.6-9.1-4.7-16-9-20.2
		c-4.5-4.3-9.2-4.7-12.3-4.3C383.6,104.6,375.8,113,377.5,123.3z"/>
	<path class="st6" d="M437.5,338.6c0,0,6.5,4.9,11.9,6c5.4,1.1,8.3,3.7,8.3,6.7s-15.6,5-21.9,2c-9.3-4.5-10.2-3.2-11.3-5.4
		c-1-2.3-0.2-8.2-0.3-9C424.3,338,437.5,338.6,437.5,338.6z"/>
	<path class="st6" d="M360.3,342.5c0,0,4,5.7,9.1,6.8c5,1.1,6.9,2.9,7.1,5.7c0.2,2.8-11.9,6.5-20.4,1.6c-5.6-3.3-7.7-3.1-8.8-5.2
		c-1.1-2.1-0.3-7.9-0.4-8.6C346.8,342,360.3,342.5,360.3,342.5z"/>
	<path class="st7" d="M405.2,196.5c0,0,12.5,32.6,16.9,44.5c5.8,15.7,10.1,29.7,10.9,37.2c0.9,9.5,6,56.7,6.7,59.5
		c0.6,2.8-17.1,1.8-17.1,1.8s-10-56.4-12.7-66.5c-2.5-9.4-26.5-52.1-28.8-49.5c-2.3,2.6-10,46.2-11.7,53.6
		c-1.7,7.4-6.3,65.8-6.3,65.8s-15.6,2.3-18.7,0c0,0,2.5-52.1,3.5-66c0.4-5.3-3.6-63.4,6-86.9C359,177.8,405.2,196.5,405.2,196.5z"/>
	<path class="st1" d="M386.6,101.4c0,0,12.1,2.3,13.7,3.6c1.7,1.4,5.1,15.3,5.3,19.1c0.2,3.8-0.9,19.3-2.6,25.1
		c-1.7,5.8-3.1,30.4-2,38.5c0,0-21.9,5.8-48.1,2.6c0,0,2.4-26,1.4-34.1c-1.3-10.3-5.7-32.7-5.7-32.7s0.3-15.5,2.7-17.4
		s20.4-4.8,20.4-4.8H386.6z"/>
	<path class="st0" d="M389.3,102c0,0,2.8,3.9-1.1,4.6c-4,0.7-12.1-0.2-16.5-5.2C371.6,101.4,383.7,100.5,389.3,102z"/>
	<path class="st7" d="M403.7,146.1l-8.1-17.3h-21.1c0,0-9.7,17.1-20.9,22.8c0,0-1.6,36-2.4,48c0,0,10.6,5.6,27.3,5.8
		c16.7,0.2,30.5,0.6,30.5,0.6s-6.9-23.1-6.9-26.2C401.9,176.8,402.9,152.2,403.7,146.1z"/>
	<path class="st7" d="M372.7,131.7c0,0,1-20.2-10.6-28.5c1.1-0.4,2.4-0.7,3.6-0.7c0,0,9.4,3.5,12.1,26.3
		C380.4,151.6,372.7,131.7,372.7,131.7z"/>
	<path class="st7" d="M394.7,128.8c0,0,2.2-16.3-2.4-26.2c0,0,2.1,0.5,3.2,0.8c0,0,4.8,5.8,2.4,30.4
		C395.7,158.5,394.7,128.8,394.7,128.8z"/>
	<path class="st7" d="M351.2,106.3c0,0-4.7,2.9-4.3,8.2c0.4,5.4,3.8,20.9,3.8,20.9L351.2,106.3z"/>
	<path class="st8" d="M341.9,219.3l-1.1-1.9c36.3-19.2,64.4-39.3,83.7-59.8c19.1-20.3,23.9-35.1,25-42.1c0.9-5.3,0.2-9.6-1.7-11.5
		c-12.1-12.1-58.3-2.1-59.2-2.2l-0.6-1.5c0.7,0,14.9-2.9,27.5-3.9c17.1-1.4,28.5,0.6,34.1,6.2c2.4,2.4,3.2,7.2,2.3,13.3
		c-1.2,7.2-6.1,22.5-25.6,43.2C406.7,179.7,378.3,199.9,341.9,219.3z"/>
	<path class="st0" d="M389.1,198.3c0,0-1.4-0.5-1.9-1c0,0-0.8-1-1.5-1.6c-0.2-0.2-0.3-0.3-0.5-0.5c-0.5-0.4-1.9-1.2-2.9-2.6
		c-1-1.4-3.6-8.4-3.6-8.4l3.7-2.4l3.1-2.7c0,0,9.9,4.4,11,5.6c0.1,0.1,0.2,0.2,0.3,0.4c0.8,1.1,0.9,2.2,1.3,2.8
		c0.1,0.2,1.2,2.6,0.9,3.3c-0.5,1-1.3,1.4-2.1,1.5c0,0-1.1,1.8-2.5,2.4c0,0-0.9,1.7-2.9,1.9C391.5,196.8,390.3,198.4,389.1,198.3z"
		/>
	<path class="st1" d="M356.5,105.4c3,0.3,11.8,5.4,9.6,12.2c-1.8,5.6-1.8,10.2-2.4,12.5c-0.5,2.3-2.8,17.7-1.5,19.3
		c1.6,2,9.8,11.7,10.5,12.5c1.4,1.6,14,16.6,14,16.6l-8.3,7.4c0,0-24.2-23.5-27.5-26.5c-2.2-2-5.6-4.9-5.6-12.3
		c0-7.5-0.4-22.2-0.1-23.6C345.6,122,343.1,103.8,356.5,105.4z"/>
	<path class="st9" d="M437.2,93.4c0,0-2.7,6.2-1.7,6.7c1,0.5,1.7,0.1,1.7,0.1l0.1,3c0,0,1.3,1.9,3.2,0.1c0,0,1,1.9,2.6-0.1
		c0,0,1.3,1,2.2,0.2c0.9-0.8,2.5-4.8,2.5-4.8s-0.1-1-1.9-1.3c0,0-0.4-1.5-2.2-1.6c0,0-0.6-1.2-2.4-1.3c0,0-1.5-2.5-3.9-1.6
		C437.5,92.8,437.3,93.1,437.2,93.4z"/>
	<path class="st0" d="M431.6,103.2c0,0,3.7-3,6.5-3.8c0.6-0.2,1.3-0.2,1.7,0.2c0.4,0.5,0.2,1.7-1.3,3c-1.5,1.4-2.9,3.8-2.9,3.8
		S433.6,107.4,431.6,103.2z"/>
	<path class="st10" d="M407.9,137.4c-1-0.7-1.9-1.4-2.9-2.2c0,0,0.8-7.9,0.4-12.1C405.5,123.1,408.2,129.8,407.9,137.4z"/>
	<path class="st11" d="M370.9,86.2L370.9,86.2c1.3,2.6,2.9,5,4.7,7.3c6.2,7.4,20.6,7.6,20.8-12.7c0-3.8-0.5-6.9-1.3-9.5
		c-2.9-9-9.9-10.5-9.9-10.5c-5.1-0.3-14.1,0.9-17.1,7.1C366.1,72.4,367.6,79.7,370.9,86.2z"/>
	<path class="st12" d="M370.9,86.2L370.9,86.2c0,0,0.7,0.2,3.4-4.8c0.5-1,0.9-0.3,1.2-0.7l4.2-1.5c0,0-4.2-6.5,1.3-8.3
		c5.6-1.8,14.1,0.6,14.1,0.6c-2.9-9-9.9-10.5-9.9-10.5c-5.1-0.3-14.1,0.9-17.1,7.1C366.1,72.4,367.6,79.7,370.9,86.2z"/>
	<path class="st11" d="M376.3,77.6c-0.3-1.4-3.2-2.5-4.4,0.4c-1.2,2.9,2.9,6,3.9,5.4C376.9,82.8,376.8,79.9,376.3,77.6z"/>
	<path class="st13" d="M367.3,77.9c0,0,13.6-8.8,29.5-5.6c0,0-0.9-18.5-19-15.3C360.8,59.9,366.7,75.8,367.3,77.9z"/>
	<path class="st13" d="M376,73.9c0,0,13.5,2.3,22.2,0.6c8.7-1.7-1.7-4.2-1.7-4.2S389.3,68.2,376,73.9z"/>
	<path class="st0" d="M389.3,104.1c0,0-3.7,2.6-16.2-2.5c0,0,1.4-6.7-1-14.1c-2.4-7.4,15.9,8.1,15.9,8.1c-0.2,0.1-0.2,0.9-0.1,1.9
		c0,0.1,0,0.1,0,0.2c0.1,0.9,0.3,1.7,0.5,2.5c0,0.1,0.1,0.2,0.1,0.3C389.2,103,389.3,101.9,389.3,104.1z"/>
	<path class="st14" d="M388.4,100.2c-8.9,1.1-13.8-7.9-13.9-8.1c6.1,8.3,13.4,5.6,13.4,5.6C388,98.5,388.2,99.4,388.4,100.2
		L388.4,100.2z"/>
	<path class="st0" d="M803.9,159.6c0,0,6-0.4,6.9-0.4s3.1,1.2,5.4,2.8c2.4,1.6,4.7,4.8,4.7,5.2c0,0.5,0.2,0.9-0.6,1.9
		c-0.8,0.9-2.1,1.3-2.1,1.3s-0.4,1.6-2,1.9c-0.2,0.4-0.5,0.8-0.9,1.1c-0.4,0.3-0.9,0.5-1.4,0.5c0,0-0.4,1.5-1.7,1.5
		c0,0-0.3-0.2-0.7-0.4c-0.7-0.4-1.8-0.9-2.4-1c-0.9-0.2-4.9-3.5-8.6-6.8C800.4,167.2,795.8,164,803.9,159.6z"/>
	<path class="st7" d="M739.5,190.3c0,0-0.9-21.3-0.6-27.1c0.4-8.6,2.1-16.3,3.5-21.4c0,0,0,0,0,0l0-0.1c0.4-1.3,0.7-2.5,1-3.4
		l8.3-28.5c-5.8-6-25.2-11.1-25.2-11.1h-13.7c0,0-24,6.8-29.9,8.9c-5.9,2.1-24.2,43.9-24.4,46.2c-0.2,2.5,27,34.8,27,34.8
		c7.2,0.5,12.4-4.7,12.4-4.7s-22.4-29.2-21.7-32.6c0.6-2.5,9.8-14.5,10.4-14.2c0.6,0.3,4.7,21.4,0.6,52.8
		C687.2,189.8,703.8,195.6,739.5,190.3z"/>
	<path class="st15" d="M645.6,123.3c0,0-7,2.2-9.1,10.3c0,0,41.9,18.9,73.9,48.5c0.1,0.1,0.2,0.2,0.3,0.3l0,0l0,0
		c1.4,0.9,4.2-0.8,6.4-3.7c2.1-2.9,3.4-6.9,2-7.8c0,0-0.1-0.1-0.1-0.1C716.1,169.4,669.3,145.1,645.6,123.3z"/>
	<path class="st16" d="M645.6,123.3c0.8,0.6,0.5,2.1-0.4,3.8c-0.6,1.2-1.4,2.3-2.4,3.3c-0.7,0.7-1.4,1.3-2.2,1.9
		c-1.9,1.3-3.7,1.8-4.6,1.1c-1.3-1-0.3-4,2.2-6.6C640.8,124.2,644.3,122.3,645.6,123.3z"/>
	<path class="st17" d="M645,125.8c0.3,0.3,0.4,0.7,0.2,1.3c-0.6,1.2-1.4,2.3-2.4,3.3c-0.7,0.7-1.4,1.3-2.2,1.9
		c-0.8,0.3-1.5,0.4-1.9,0.1c-0.8-0.7-0.2-2.6,1.4-4.3C641.8,126.4,644.2,125.1,645,125.8z"/>
	<path class="st18" d="M639.6,133c0,0-6.7,2.8-7.9,11.1c0,0,43.8,14.9,78.9,41.4c0.1,0.1,0.2,0.2,0.3,0.3l0,0
		c1.5,0.7,4.1-1.2,5.9-4.2c1.8-3.1,2.6-7.2,1.2-8c0,0-0.1,0-0.1-0.1C714.9,172.3,665.7,152.5,639.6,133z"/>
	<path class="st19" d="M639.6,133c0.8,0.5,0.7,2.1,0.1,3.8c-0.5,1.2-1.2,2.4-2,3.5c-0.6,0.8-1.2,1.5-2,2.1c-1.7,1.5-3.5,2.1-4.5,1.5
		c-1.4-0.9-0.7-3.9,1.4-6.8C634.9,134.3,638.3,132.1,639.6,133z"/>
	<path class="st20" d="M639.3,135.5c0.3,0.2,0.5,0.7,0.4,1.3c-0.5,1.2-1.2,2.4-2,3.5c-0.6,0.8-1.2,1.5-2,2.1
		c-0.8,0.4-1.5,0.5-1.9,0.3c-0.9-0.6-0.5-2.6,0.9-4.4C636.2,136.4,638.4,135,639.3,135.5z"/>
	<path class="st21" d="M660.8,121.3c0,0-7.7,1-11.6,8.5c0,0,39.5,24.8,66.4,58.5c0.1,0.1,0.2,0.2,0.3,0.3l0,0l0,0
		c1.3,1.1,4.6-0.1,7.4-2.5c2.8-2.4,5-6.1,3.8-7.2c0,0-0.1-0.1-0.1-0.1C724.2,176.9,680.8,146,660.8,121.3z"/>
	<path class="st19" d="M660.8,121.3c0.7,0.7,0.1,2.1-1.2,3.6c-0.9,1.1-2,2-3.2,2.8c-0.8,0.6-1.7,1.1-2.7,1.5c-2.2,1-4.2,1.1-5,0.3
		c-1.1-1.2,0.5-3.9,3.7-6C655.6,121.3,659.7,120.1,660.8,121.3z"/>
	<path class="st20" d="M659.7,123.5c0.3,0.3,0.2,0.8-0.1,1.3c-0.9,1.1-2,2-3.2,2.8c-0.8,0.6-1.7,1.1-2.7,1.5c-0.9,0.2-1.7,0.1-2-0.2
		c-0.7-0.8,0.4-2.5,2.4-3.9C656.3,123.6,658.9,122.8,659.7,123.5z"/>
	<path class="st22" d="M668.8,112.9c0,0-7.8,0.2-12.5,7.3c0,0,36.4,28.6,59.2,64.7c0.1,0.1,0.1,0.2,0.2,0.3l0,0l0,0
		c1.1,1.2,4.5,0.4,7.6-1.8c3.1-2.1,5.7-5.6,4.6-6.8c0,0-0.1-0.1-0.1-0.1C725.4,174.5,685.8,139.5,668.8,112.9z"/>
	<path class="st19" d="M668.8,112.9c0.6,0.8-0.2,2.1-1.6,3.5c-1,1-2.2,1.8-3.5,2.5c-0.9,0.5-1.8,0.9-2.8,1.2c-2.3,0.7-4.3,0.7-5-0.2
		c-1-1.3,1-3.8,4.3-5.6C663.7,112.5,667.9,111.7,668.8,112.9z"/>
	<path class="st20" d="M667.5,115.1c0.2,0.3,0.1,0.8-0.2,1.3c-1,1-2.2,1.8-3.5,2.5c-0.9,0.5-1.8,0.9-2.8,1.2c-0.9,0.1-1.7,0-2-0.4
		c-0.6-0.8,0.7-2.5,2.9-3.7C664.1,114.8,666.8,114.3,667.5,115.1z"/>
	<path class="st22" d="M845.5,131.9c0,0-2.5-6.4-11.5-8.1c0,0-19.5,39-50.9,69.1c-0.1,0.1-0.2,0.2-0.3,0.3l0,0c0,0,0,0,0,0
		c-0.9,1.3,0.9,3.9,4.1,5.8s7.6,3,8.6,1.7c0,0,0.1-0.1,0.1-0.1C797.1,197.9,822.3,154.3,845.5,131.9z"/>
	<path class="st19" d="M845.5,131.9c-0.6,0.7-2.3,0.5-4.2-0.2c-1.3-0.5-2.5-1.2-3.7-2.1c-0.8-0.6-1.5-1.2-2.1-1.9
		c-1.5-1.7-2-3.3-1.3-4.2c1.1-1.2,4.3-0.4,7.2,1.8C844.4,127.5,846.5,130.7,845.5,131.9z"/>
	<path class="st20" d="M842.8,131.5c-0.3,0.3-0.8,0.4-1.5,0.2c-1.3-0.5-2.5-1.2-3.7-2.1c-0.8-0.6-1.5-1.2-2.1-1.9
		c-0.4-0.7-0.5-1.4-0.1-1.8c0.7-0.8,2.8-0.2,4.8,1.2C842.1,128.6,843.5,130.7,842.8,131.5z"/>
	<path class="st11" d="M708.2,81L708.2,81c0.7,2.9,1.8,5.6,3.2,8.2c4.6,8.6,19.2,11.5,24-8.7c0.9-3.8,1.1-7.1,0.8-9.7
		c-1-9.6-7.7-12.4-7.7-12.4c-5.1-1.2-14.5-1.8-18.9,3.9C706.5,66.2,706.4,73.8,708.2,81z"/>
	<path class="st12" d="M708.2,81L708.2,81c0,0,0.7,0.3,4.5-4.2c0.8-0.9,1-0.1,1.4-0.5l4.6-0.7c0,0-2.8-7.3,3.2-8.1
		c6.1-0.8,14.2,3.3,14.2,3.3c-1-9.6-7.7-12.4-7.7-12.4c-5.1-1.2-14.5-1.8-18.9,3.9C706.5,66.2,706.4,73.8,708.2,81z"/>
	<path class="st11" d="M715.7,73.4c0-1.4-2.7-3.1-4.6-0.5c-1.9,2.7,1.6,6.6,2.8,6.1C715.2,78.7,715.7,75.8,715.7,73.4z"/>
	<path class="st7" d="M706.5,71.9c0,0,15.8-6.2,31.2,0c0,0,3.2-18.7-15.9-19C703.9,52.7,706.3,69.7,706.5,71.9z"/>
	<path class="st7" d="M716.2,69.6c0,0,13.2,4.9,22.4,4.8c9.2,0-0.8-4.5-0.8-4.5S731,66.5,716.2,69.6z"/>
	<path class="st23" d="M679.4,340.7c0,0-1.8,4-3.3,5.5c-1.5,1.6-7.3,4.4-7.3,9.1c0,5.1,9.7,3.7,13.6,3.5c3.8-0.2,4.1-2.9,5.7-5.8
		c1.6-2.9,3.2-2.4,3.5-4.7c0.3-2.3-1.2-7.5-1.2-7.5L679.4,340.7z"/>
	<path class="st24" d="M679.1,339.6l0.3,2.6c0,0,5.2,1.8,10.9,0l0-3.3L679.1,339.6z"/>
	<path class="st23" d="M737.1,340.7c0,0,1.8,4,3.3,5.5c1.5,1.6,7.3,4.4,7.3,9.1c0,5.1-9.7,3.7-13.6,3.5c-3.8-0.2-4.1-2.9-5.7-5.8
		c-1.6-2.9-3.2-2.4-3.5-4.7c-0.3-2.3,1.2-7.5,1.2-7.5L737.1,340.7z"/>
	<path class="st24" d="M737.3,339.2l-0.3,2.6c0,0-5.2,1.8-10.9,0l0-3.3L737.3,339.2z"/>
	<path class="st1" d="M688,184.1c0.6-0.3,1.3-0.5,2-0.7c16.6-5.5,48.6,0.3,48.6,0.3l1.1,8.3c1.1,8.9,2.7,22,2.5,23.3
		c-0.2,2.1,3.2,52.7,3.2,58.9c0,6.2-5.2,65.3-5.2,65.3c-0.7,2.1-13.4,2.3-15.7,1.3c-2.3-1,0.2-60.2-0.2-66.5
		c-0.4-6.3-10.8-53.2-12.8-53c-2,0.2-8.6,52.1-10.2,56.9c-1.6,4.8-9.6,62.3-9.6,62.3c-5,2.7-15.5,0-15.5,0s2-59.7,2.2-61.4
		c0.4-2.6,0-9.6,1.1-25.2c1-13.9,4.8-44.3,7.1-60.7L688,184.1z"/>
	<path class="st25" d="M723.2,333.9l0.8,7c0,0,0.7,1,8.1,1.2c7.4,0.2,8.6-2.2,8.6-2.2l0.3-6.3C741,333.5,734.5,336.4,723.2,333.9z"
		/>
	<path class="st25" d="M693.3,334.3l-0.8,7c0,0-0.7,1-8.1,1.2c-7.4,0.2-8.6-2.2-8.6-2.2l-0.3-6.3C675.5,333.9,682,336.8,693.3,334.3
		z"/>
	<path class="st7" d="M799.5,168.3c0,0-24.1-10.6-29.9-14c-2.6-1.6-8.8-5.5-12.6-10.1c-1.2-1.5-2.5-3-3.6-4.6
		c-4.6-6.2-8.3-12.1-8.3-12.1s-13.7-14.8-2.7-21.4c0,0,5.3-0.3,9,3.3c3.7,3.6,6.7,10.1,7.7,12.1c1,1.9,9.6,11.6,10.3,12
		c0.7,0.4,7.5,9.5,11.8,11.3c5.4,2.2,25.7,13.8,25.7,13.8L799.5,168.3z"/>
	<path class="st11" d="M726.7,98.7c0,0,2.9,0.6-9.2,11.2c0,0-8.6-8.7-8.3-10.2C709.5,98.3,726.7,98.7,726.7,98.7z"/>
	<path class="st11" d="M709.2,99.8c0,0,1.8-9.3,1.4-12.2c-0.5-2.9,15.7,2,15.7,2s-0.1,2.7-0.1,5.3c0,1,0.1,2,0.2,3
		c0,0.3,0.1,0.7,0.3,1C727.5,100.4,720.5,109,709.2,99.8z"/>
	<path class="st9" d="M820.4,166.8c0,0-6.1-4-6.9-3.1s-0.6,1.6-0.6,1.6l-3.3-0.6c0,0-2.4,0.7-0.8,3c0,0-2.3,0.5-0.5,2.4
		c0,0-1.4,1-0.7,2c0.7,1,4.7,3.5,4.7,3.5s1.1,0.2,1.8-1.4c0,0,1.8-0.1,2.3-1.6c0,0,1.4-0.3,2-2c0,0,3.1-0.8,2.7-3.2
		C820.9,167.2,820.6,166.9,820.4,166.8z"/>
	<path class="st0" d="M811,159.3c0,0,2.4,4.2,2.6,7c0,0.6,0,1.3-0.7,1.5c-0.6,0.3-1.8-0.2-3-2c-1.1-1.8-3.4-3.6-3.4-3.6
		S805.9,160.1,811,159.3z"/>
	<path class="st1" d="M741.5,145.1c0,0-7.5-3-10.5-15.1h-29.6c0,0-8.7,16.4-13.5,17.3c0,0,1.2,17.6,0.7,24.5
		c-0.5,6.9-1.5,19.9-1.5,19.9s0.8,12.2,52.9,3.7c0,0-0.6-29-0.5-30.2C739.5,163.8,741.3,145.8,741.5,145.1z"/>
	<path class="st1" d="M731,129.9c0,0,3.2-16.4,10.7-26.1c0,0-0.8-0.8-2.7-1.1c0,0-8.1,10.8-11.2,27.2
		C724.7,146.3,731,129.9,731,129.9z"/>
	<path class="st1" d="M701.8,129.9c0,0-2.3-15.5-9.8-25.2c0,0,0.8-0.7,2.7-0.8c0,0,7.1,9.6,10.2,26
		C708,146.3,701.8,129.9,701.8,129.9z"/>
	<path class="st26" d="M723.1,149.1h-8.6H706l-8,7.3v22.3h16.5H731v-22.3L723.1,149.1z"/>
	<path class="st7" d="M688,147.2c0,0-1.1-9.8-1.7-11.8c0,0,8,3,8.5,5.2C694.8,140.6,691.4,146.3,688,147.2z"/>
	<path class="st0" d="M697.1,199.4c0,0-1.4-0.5-1.8-0.9c0,0-0.7-0.9-1.3-1.5c-0.1-0.2-0.3-0.3-0.5-0.4c-0.5-0.4-1.7-1.1-2.6-2.4
		c-0.8-1.2-2.7-7.4-2.7-7.4l3.9-1.9l3.4-2.2c0,0,9.4,4.1,10.4,5.2c0.1,0.1,0.2,0.2,0.2,0.3c0.7,1,0.7,2,1,2.5c0.1,0.2,1,2.3,0.5,2.8
		c-0.2,0.3-0.6,0.6-0.9,0.9c-0.4,0.2-0.8,0.3-1.3,0.4c0,0-1.3,1.5-2.7,1.9c0,0-1.1,1.4-3.1,1.5C699.6,198.2,698.3,199.6,697.1,199.4
		z"/>
	<path class="st7" d="M659.2,155.4c0,0,25.5,32.7,27.5,35c0,0,9.1,0.2,11.9-6c0,0-9-12-9.7-13.4C688.8,171,665,158,659.2,155.4z"/>
	<path class="st14" d="M726.2,94.8c0,0-7,4.1-13.6-3.7c0,0,3.1,7,7.9,6.8C725.4,97.7,726.2,94.8,726.2,94.8z"/>
	<path class="st0" d="M603,196.6c0,0,5.5,1.8,6.3,2.1c0.8,0.3,2.3,2.3,3.7,4.7c1.5,2.4,2.3,6.4,2.1,6.8c-0.2,0.4-0.2,1-1.3,1.6
		c-0.7,0.4-1.5,0.6-2.4,0.5c0,0-1,1.4-2.6,1.2c-0.3,0.4-0.7,0.6-1.2,0.8c-0.5,0.1-1,0.1-1.5,0c0,0-1,1.2-2.2,0.7c0,0-1.5-2-2.2-2.6
		c-0.8-0.6-3-5.2-5-9.8C596.8,202.7,593.9,198,603,196.6z"/>
	<path class="st0" d="M601.3,194.7c0,0,1.9,2,3.5,2.8c1.6,0.9-8,5.4-8,5.4s-0.9-4.3-1.6-7.5C594.8,192.8,601.3,194.7,601.3,194.7z"
		/>
	<path class="st1" d="M606.1,196.8l-10.9,3.6c0,0-15.7-28-19-34.8c0,0-5-9.9-9.8-18.1c-1-1.8-2-3.5-3-4.9l-0.6-1.2
		c-1.6-3.2-6-11.9-6-11.9s-13-16.4-2.3-23.3c0,0,3.3,0.4,6.9,4.2c3.6,3.8,8,10.8,8.9,12.8c0.9,2,9.7,19.4,10.2,20.1
		c1.5,2.4,6.6,12.7,8.4,16.9C592.5,168.2,606.1,196.8,606.1,196.8z"/>
	<path class="st11" d="M527.5,86.7L527.5,86.7c1.3,2.9,3,5.6,4.9,8.1c6.4,8.2,21.3,8.4,21.5-14.1c0-4.2-0.5-7.7-1.3-10.5
		c-3.1-10-10.2-11.6-10.2-11.6c-5.3-0.3-14.6,1-17.7,7.9C522.5,71.4,524.1,79.5,527.5,86.7z"/>
	<path class="st12" d="M527.5,86.7L527.5,86.7c0,0,0.8,0.2,3.5-5.3c0.6-1.1,1-0.3,1.2-0.8l4.4-1.7c0,0-4.3-7.2,1.3-9.2
		c5.8-2,14.6,0.6,14.6,0.6c-3.1-10-10.2-11.6-10.2-11.6c-5.3-0.3-14.6,1-17.7,7.9C522.5,71.4,524.1,79.5,527.5,86.7z"/>
	<path class="st11" d="M533.1,77.2c-0.3-1.5-3.3-2.8-4.6,0.4c-1.3,3.2,3,6.6,4.1,5.9C533.8,82.9,533.7,79.7,533.1,77.2z"/>
	<path class="st7" d="M523.8,77.5c0,0,14.1-9.7,30.6-6.2c0,0-1-20.5-19.7-17C517,57.5,523.2,75.1,523.8,77.5z"/>
	<path class="st7" d="M532.8,73c0,0,14,2.5,23,0.6c9-1.9-1.7-4.6-1.7-4.6S546.6,66.7,532.8,73z"/>
	<path class="st6" d="M590.2,338.2c0,0,6.2,5,11.3,6.1c5.2,1.1,7.9,3.8,7.9,6.8c0,3.1-14.9,5.1-20.8,2c-8.8-4.6-9.7-3.2-10.7-5.5
		c-1-2.3-0.2-8.4-0.3-9.1C577.6,337.6,590.2,338.2,590.2,338.2z"/>
	<path class="st6" d="M516.6,342.2c0,0,3.8,5.8,8.7,6.9c4.8,1.1,6.6,3,6.8,5.8c0.2,2.9-11.3,6.6-19.4,1.6c-5.3-3.3-7.3-3.1-8.4-5.2
		c-1.1-2.1-0.3-8.1-0.4-8.7C503.8,341.7,516.6,342.2,516.6,342.2z"/>
	<path class="st7" d="M559.4,193.5c0,0,14.5,35.8,18.7,48c5.5,16,8.5,30.1,9.2,37.8c0.9,9.7,4.3,55.2,4.9,58
		c0.6,2.8-16.3,1.9-16.3,1.9s-9.5-57.4-12.1-67.7c-2.4-9.6-25.2-53-27.4-50.4c-2.2,2.6-9.5,47.1-11.1,54.6s-6,67-6,67
		s-14.8,2.4-17.8,0c0,0,2.3-53,3.4-67.1c0.4-5.4-3.4-64.6,5.7-88.4C515.4,174.5,559.4,193.5,559.4,193.5z"/>
	<path class="st1" d="M543.8,103.6c0,0,12.6,2.6,14.2,4c1.8,1.5,5.3,17,5.5,21.2c0.2,4.2-0.9,21.4-2.7,27.8
		c-1.8,6.5-3.2,33.7-2.1,42.7c0,0-23.5,5.7-50.7,2.1c0,0,3.4-28.1,2.3-37c-1.4-11.4-5.9-36.2-5.9-36.2s3.9-19,6.8-20.2
		c9.6-4.1,16.9-4.3,16.9-4.3L543.8,103.6z"/>
	<path class="st0" d="M546.6,106.5c0,0-3.9,2.9-16.7-2.8c0,0,1.5-7.7-1-15.9c-2.5-8.2,16.4,9.3,16.4,9.3c-0.2,0.1-0.2,1-0.1,2.1
		l0,0.2c0.1,0.9,0.3,1.9,0.5,2.8c0,0.1,0.1,0.2,0.1,0.4C546.4,105.3,546.6,104.1,546.6,106.5z"/>
	<path class="st14" d="M545.6,102.2c-9.2,1.2-14.3-8.7-14.4-9c6.3,9.2,13.9,6.2,13.9,6.2C545.2,100.3,545.4,101.3,545.6,102.2
		L545.6,102.2z"/>
	<path class="st0" d="M546.5,104.1c0,0,3,4.4-1.2,5.1c-4.1,0.7-12.7,0-17.3-5.6C528.1,103.7,540.7,102.5,546.5,104.1z"/>
	<path class="st7" d="M561.5,153l-8.4-19.1h-21.9c0,0-10,18.9-21.7,25.2c0,0,0.5,31.2-2.5,42c0,0,11,17.4,28.3,17.6
		c17.3,0.3,31-8.1,31-8.1s-6.5-16.9-6.6-20.3C559.6,187,560.6,159.7,561.5,153z"/>
	<path class="st7" d="M529.4,137.1c0,0,0.5-22.3-11.4-31.6c1.3-0.6,2.6-0.9,4-1c0,0,9.9,4.1,12.6,29.4
		C537.3,159.1,529.4,137.1,529.4,137.1z"/>
	<path class="st7" d="M552.1,133.9c0,0,2.3-18.1-2.4-29c0,0,2.1,0.5,3.4,0.9c0,0,4.9,6.4,2.5,33.7
		C553.2,166.7,552.1,133.9,552.1,133.9z"/>
	<path class="st27" d="M631.5,207.6l-0.1,3.2l-172-5.5l0.1-3.2L631.5,207.6z"/>
	<path class="st28" d="M622.7,225.5l31.4,1c10.2-5.3,11.6-16.3,11.6-16.3s-0.6-11.1-10.5-17.1l-31.4-1L622.7,225.5z"/>
	<path class="st0" d="M487.5,211.2c0,0-0.9-1.1-1.1-1.7c0,0-0.2-1.2-0.4-2.1c-0.1-0.2-0.1-0.4-0.2-0.7c-0.2-0.6-1-1.9-1.1-3.6
		c-0.2-1.7,1-9.1,1-9.1l4.2-0.5l3.9-1c0,0,6.2,8.3,6.5,9.8c0,0.1,0.1,0.3,0.1,0.4c0.2,1.3-0.3,2.4-0.3,3.1c0,0.3-0.2,2.8-0.8,3.3
		c-0.9,0.6-1.7,0.7-2.4,0.4c0,0-1.8,1.1-3.2,1c0,0-1.6,1.1-3.3,0.4C490.2,210.9,488.5,211.9,487.5,211.2z"/>
	<path class="st1" d="M521.7,109.5c2.2,2-1.2,9.6-4.6,16.1c-2.7,5.2-6.3,9.1-8.1,10.7s-14.7,11.9-14.8,14c0,2.7,0.5,15.5,0.5,16.7
		c0.1,2.2,1.4,27.6,1.4,27.6l-11.4,1.6c0,0-4.2-35.4-4.9-39.9c-0.5-3-1.9-8,2.8-14.3c4.7-6.4,14.6-21.7,15.8-22.7
		C499.4,118.3,512,100.4,521.7,109.5z"/>
	<path class="st9" d="M614.8,209.6c0,0-3.9-6.1-4.9-5.6c-1.1,0.5-1.1,1.3-1.1,1.3l-2.7-1.8c0,0-2.5-0.2-1.9,2.6c0,0-2.3-0.4-1.5,2.2
		c0,0-1.6,0.4-1.5,1.7c0.2,1.3,2.8,5.1,2.8,5.1s0.9,0.6,2.2-0.7c0,0,1.6,0.6,2.7-0.7c0,0,1.4,0.3,2.6-1.2c0,0,3.1,0.4,3.7-2.2
		C615.2,210.3,615,209.9,614.8,209.6z"/>
	<path class="st0" d="M609.4,198.9c0,0,0.4,4.9-0.5,7.7c-0.2,0.6-0.5,1.2-1.2,1.2c-0.7,0-1.6-0.9-1.9-3c-0.3-2.1-1.7-4.7-1.7-4.7
		S604.5,197.8,609.4,198.9z"/>
	<path class="st1" d="M566.4,147.5c-1-1.8-2-3.5-3-4.9l-0.6-1.2c0,0,0.1-8-1.5-14.2C561.4,127.2,565.8,134.3,566.4,147.5z"/>
	<path class="st28" d="M468.2,202.4l-7.3-0.2c-0.9-3.1-3.6-7.3-9.3-7.7l-1.1-0.1l-1.1,17.3l1.1,0.1c5.7,0.4,8.9-3.5,10.2-6.4
		l7.3,0.2L468.2,202.4z M457.3,206.7c-1.5,1.8-3.4,2.8-5.6,2.9l0.9-12.9c5,0.9,6.3,5.8,6.5,6.9C458.6,204.8,458.1,205.8,457.3,206.7
		L457.3,206.7z"/>
	<path class="st0" d="M274.4,129.6c0,0-1.4-5.6-1.6-6.4c-0.2-0.9,0.8-3.1,2.2-5.6c1.4-2.5,4.4-5.3,5-5.4c0.5-0.1,1-0.3,2.2,0.3
		c0.8,0.4,1.4,1,1.8,1.7c0,0,1.8,0.1,2.5,1.5c0.5,0.1,1,0.3,1.4,0.6c0.4,0.3,0.7,0.8,0.8,1.3c0,0,1.7,0.2,1.9,1.5c0,0-1,2.3-1.1,3.2
		c-0.1,0.9-3,5.2-6,9.3C283.4,131.6,280.8,136.4,274.4,129.6z"/>
	<path class="st29" d="M279.3,122.8c0,0,1.8,2.3,2,3.2c0.2,0.9,6.7-1.3,6.7-1.3S282.3,120.8,279.3,122.8z"/>
	<path class="st0" d="M273.7,131.9c0,0,0.7-2.6,0.6-4.4c-0.2-1.8,9.4,3.8,9.4,3.8s-3.4,3-5.9,5.2
		C275.6,138.4,273.7,131.9,273.7,131.9z"/>
	<path class="st1" d="M280.6,134.3c0,0-19.2,29.4-25.9,27.9c-3.1-0.7-13.4-8.1-17.3-12.8c-1.3-1.5-2.5-3.2-3.7-4.8
		c-4.8-6.4-8.5-12.6-8.5-12.6s-14.1-15.4-2.8-22.3c0,0,4.1-1.4,7.9,2.3c3.8,3.8,8.2,11.6,9.2,13.6c1,2,14,16.5,14.8,16.9
		c0.7,0.4,5.7-2.1,8.9-5.4c4.8-5,10-11.7,10-11.7L280.6,134.3z"/>
	<path class="st27" d="M167.9,90.8l-0.9,3l159.4,42.1l0.9-3L167.9,90.8z"/>
	<path class="st28" d="M178.8,78.2l-31.9-8.4c-11.9,2.7-16.1,12.9-16.1,12.9s-2.2,10.8,6.4,18.9l32,8.4L178.8,78.2z"/>
	<path class="st9" d="M279.5,112.9c0,0-3.3,6.4-2.3,7c1,0.6,1.8,0.3,1.8,0.3l-0.1,3.2c0,0,1.2,2.2,3.4,0.3c0,0,0.9,2.1,2.8,0.1
		c0,0,1.3,1.1,2.3,0.3c1-0.8,3-5,3-5s0-1.1-1.9-1.5c0,0-0.4-1.7-2.2-1.9c0,0-0.5-1.3-2.5-1.5c0,0-1.4-2.8-4-2
		C279.9,112.2,279.7,112.6,279.5,112.9z"/>
	<path class="st0" d="M272.9,123c0,0,4.2-3,7.2-3.6c0.7-0.2,1.4-0.2,1.8,0.4c0.4,0.5,0.1,1.8-1.6,3.1c-1.7,1.4-3.3,3.9-3.3,3.9
		S274.7,127.6,272.9,123z"/>
	<path class="st11" d="M194,89.7L194,89.7c1.4,2.8,3.2,5.5,5.2,8c6.8,8.1,22.6,8.3,22.8-13.9c0-4.2-0.5-7.6-1.4-10.4
		c-3.2-9.8-10.8-11.5-10.8-11.5c-5.6-0.3-15.4,1-18.7,7.8C188.8,74.6,190.5,82.6,194,89.7z"/>
	<path class="st12" d="M194,89.7L194,89.7c0,0,0.8,0.2,3.7-5.3c0.6-1.1,1-0.3,1.3-0.8l4.6-1.7c0,0-4.6-7.1,1.4-9.1
		c6.1-2,15.5,0.6,15.5,0.6c-3.2-9.8-10.8-11.5-10.8-11.5c-5.6-0.3-15.4,1-18.7,7.8C188.8,74.6,190.5,82.6,194,89.7z"/>
	<path class="st11" d="M200,80.3c-0.3-1.5-3.5-2.8-4.8,0.4c-1.3,3.2,3.1,6.6,4.3,5.9C200.7,85.9,200.6,82.8,200,80.3z"/>
	<path class="st7" d="M190.1,80.5c0,0,14.9-9.6,32.3-6.2c0,0-1-20.2-20.8-16.8C183,60.8,189.5,78.3,190.1,80.5z"/>
	<path class="st7" d="M199.7,76.2c0,0,14.8,2.5,24.3,0.6c9.5-1.8-1.8-4.6-1.8-4.6S214.3,70,199.7,76.2z"/>
	<path class="st6" d="M260.4,338.4c0,0,6.5,5,12,6.1c5.5,1.1,8.3,3.7,8.4,6.7c0,3-15.8,5-22,2c-9.3-4.6-10.3-3.2-11.3-5.5
		c-1-2.3-0.2-8.3-0.3-9C247,337.8,260.4,338.4,260.4,338.4z"/>
	<path class="st6" d="M182.6,342.4c0,0,4.1,5.7,9.2,6.9c5.1,1.1,6.9,2.9,7.2,5.8c0.2,2.8-11.9,6.6-20.5,1.6
		c-5.6-3.3-7.7-3.1-8.9-5.2s-0.3-8-0.4-8.6C169,341.9,182.6,342.4,182.6,342.4z"/>
	<path class="st26" d="M227.8,195.3c0,0,15.4,35.4,19.8,47.5c5.8,15.8,9,29.8,9.7,37.4c0.9,9.5,4.5,54.6,5.2,57.4
		c0.6,2.8-17.2,1.9-17.2,1.9s-10.1-56.8-12.8-67c-2.6-9.5-26.7-52.4-29-49.8c-2.3,2.6-10.1,46.5-11.8,54c-1.7,7.5-6.3,66.2-6.3,66.2
		s-15.7,2.3-18.8,0c0,0,2.5-52.4,3.6-66.4c0.4-5.3-3.6-63.9,6.1-87.5C181.3,176.5,227.8,195.3,227.8,195.3z"/>
	<path class="st26" d="M211.3,106.4c0,0,13.3,2.5,15,4c1.9,1.5,5.6,16.8,5.8,20.9c0.2,4.1-0.9,21.1-2.8,27.5
		c-1.9,6.4-1.5,38-0.3,46.9c0,0-28.1,7.7-56.9,4.2c0,0,5-34.6,3.8-43.4c-1.5-11.3-6.3-35.8-6.3-35.8s0.4-17,2.9-19
		c2.6-2,22.3-5.2,22.3-5.2L211.3,106.4z"/>
	<path class="st0" d="M214.2,109.2c0,0-4.1,2.8-17.7-2.7c0,0,1.3-6.8-1.3-15c-2.7-8.1,17.6,8.4,17.6,8.4c-0.2,0.1-0.3,1-0.1,2.1
		c0,0.1,0,0.1,0,0.2c0.1,0.9,0.3,1.9,0.5,2.8c0,0.1,0.1,0.2,0.1,0.4C214.1,108.1,214.2,106.9,214.2,109.2z"/>
	<path class="st30" d="M228.9,135.7h-6.6v9.4h6.6V135.7z"/>
	<path class="st14" d="M213.2,105c-9.8,1.2-15.1-8.6-15.2-8.9c6.7,9.1,14.7,6.2,14.7,6.2C212.8,103.2,213,104.1,213.2,105L213.2,105
		z"/>
	<path class="st0" d="M214.2,107c0,0,3.1,4.3-1.2,5.1c-4.4,0.7-12.8-0.2-17.6-5.6C195.3,106.4,208.1,105.3,214.2,107z"/>
	<path class="st7" d="M195.3,106.4c0,0,10.8,8.3,17.1,30.3c9.6,33.9,0.9,74.2,0.9,74.2s-12.6,3.7-42.1-0.9c-0.4-0.1-0.8-0.3-1.1-0.6
		c-0.3-0.3-0.4-0.8-0.3-1.2c0.9-7.3,4.8-38.5,3.5-46.5c-0.8-5.3-1.2-10.7-1.2-16c0,0,5.5,4.4,10.3-2.2c4.9-6.6-5.2-25.7-13.4-29.4
		c0,0,2.5-3.2,8-4.4C190.4,106.6,195.3,106.4,195.3,106.4z"/>
	<path class="st7" d="M213.8,106.8c0,0,5.4,16.9,2.6,33.7c-1.1,6.4-2.6,68.6-1.4,70.3c0,0,10.3-0.9,17.3-4.3
		c0.3-0.1,0.5-0.3,0.6-0.6c0.1-0.3,0.2-0.5,0.2-0.8c-0.8-5.6-4.8-34.6-2.7-44.7c2.4-11.2,6.3-23.3-2.4-49.8
		C228,110.6,226.9,108.3,213.8,106.8z"/>
	<path class="st1" d="M172.1,146.3l-0.4-3.2l-0.6-3.7l-2-12.4c0,0-1-9.4,3.8-15.9c0,0,8.4-3.9,11.4,4.2
		C187.3,123.2,189.3,154.1,172.1,146.3z"/>
	<path class="st31" d="M170.6,201.3c0,0,45.3,5.1,61.3-4.2l-0.5-3.9c0,0-13.8,7.9-60.4,3.9L170.6,201.3z"/>
	<path class="st31" d="M171.5,193.6c0,0,45.5,3.8,59.6-3.9l-0.4-4.3c0,0-8.4,7.2-58.7,3.8L171.5,193.6z"/>
	<path class="st0" d="M169,185.6c0,0,1,0.8,2.1,0.8c1.8,0,4-2,5.9-0.3c1.9,1.8-2.2,9.3-3.6,10.2c-1.5,0.9-4.8-0.7-8.3-4.8
		C161.4,187.4,169,185.6,169,185.6z"/>
	<path class="st0" d="M176.2,185.6c2.6,0.9,5.2,1.9,7.7,3.1c3.5,1.6,7.4,4.2,7.1,5c-0.7,1.8-3.8-1-7.4-2.4c-3.3-1.3-2.8-0.6-2.8-0.6
		s-0.1-0.2,3.2,1.8c3.5,2.2,6.9,4.9,6.7,5.8c-0.1,0.5-0.4,0.6-1.8,0c0.7,0.5,0.7,0.8,0.5,1.1c-1,1.7-6.8-0.8-9-1.7
		c1.7,0.8,2.9,1.5,1.6,2.2c-1.5,0.7-9.4-3.1-12.4-4.2C166.4,194.5,176.2,185.6,176.2,185.6z"/>
	<path class="st1" d="M182.2,113.1c2.2,2.1,1.4,9.7-2.5,16.1c-3.1,5-7,8.8-9,10.4c-2,1.5-14.1,10.4-13.6,12.4s7.6,16.3,7.9,17.4
		c0.3,1.1,8.6,16.1,8.6,16.1l-9.8,6.1c0,0-19.1-29.2-20.4-31.9c-1.3-2.7-6-9.1-0.8-15.1c5.2-6.1,16.1-21,17.4-22
		C161.3,121.4,172.2,103.9,182.2,113.1z"/>
	<path class="st32" d="M181,126.9c0,0.3-1.3,9.7-9.4,16.1l-0.6-3.7C171,139.4,179,132.6,181,126.9z"/>
	<path class="st33" d="M972.3,177.4l-15.9-6.6l7.1-16.6l15.9,6.6L972.3,177.4z"/>
	<path class="st0" d="M948.9,178.8c0,0,5.6-1,6.5-1.2c0.9-0.1,3.1,0.9,5.5,2.3c2.4,1.4,5.1,4.3,5.1,4.8c0,0.5,0.3,0.9-0.4,2
		c-0.4,0.7-1.1,1.2-1.8,1.5c0,0-0.2,1.7-1.6,2.2c-0.1,0.5-0.4,0.9-0.7,1.2c-0.4,0.3-0.8,0.6-1.3,0.6c0,0-0.2,1.6-1.5,1.8
		c0,0-2.2-1-3.2-1.2c-0.9-0.1-5.4-2.6-9.3-5.6C946.2,187.4,941.7,184.3,948.9,178.8z"/>
	<path class="st29" d="M955.4,183.6c0,0-2.4,1.6-3.3,1.7c-0.9,0.1,1.7,5.9,1.7,5.9S957.3,186.5,955.4,183.6z"/>
	<path class="st22" d="M892.5,114.7c0,0-6.5-14.1-16.6-5.1c-9.9,8.8,0.3,16.5,17,44.8c0,0,5.7,8.3,11.3,11.9
		c9,5.8,40.7,20.6,43.4,22.6l3.8-11c0,0-15.3-8.3-22.1-13.7c-6.8-5.4-19.1-12.7-19.1-12.7L892.5,114.7z"/>
	<path class="st0" d="M895.2,94.5c0,0,0,0.7,0.1,1.9c0,0.8,0.1,1.9,0.2,3c0.2,3,0.6,6.7,1.1,8.3c1.1,3-14.5-8.2-14.5-8.2
		c-0.4-7.3-1.2-14.6-2.6-21.8C877.2,66.3,895.2,94.5,895.2,94.5z"/>
	<path class="st34" d="M820.1,312.8c0,0,5.1,3.4,7.3,4.7c2.1,1.4,4.1,0.4,3.5,2.1c-0.7,1.6-1.6,8.1-0.6,10.5
		c1,2.5,8.5,17.9,5.5,20.3c-3,2.4-8.7-3.3-15.5-12.2c-6.9-8.9-9.4-7.5-12.1-14.7C807.3,321.3,820.1,312.8,820.1,312.8z"/>
	<path class="st34" d="M931.4,341.6c0,0,6.1-1.8,8.6-2.6c2.5-0.8,3.1-2.9,3.9-1.4s5.5,6.5,8.1,7.3c2.7,0.8,20,5.1,20,9
		c0,4-8.4,4.6-20,4.1c-11.6-0.5-12.2,2.4-19.7-0.2C930,357.1,931.4,341.6,931.4,341.6z"/>
	<path class="st0" d="M930.5,337.9l1.1,4.4l11.1-3.4l-1-4.3L930.5,337.9z"/>
	<path class="st0" d="M822.9,309.3l-2.9,3.5l9.5,6.4l2.8-3.4L822.9,309.3z"/>
	<path class="st1" d="M910.8,211.9c0,0-0.6,2.1-1.7,5.5c-0.6,1.9-1.4,4.3-2.3,6.9c-0.6,1.7-1.3,3.5-2,5.3c-0.7,1.9-1.5,3.8-2.4,5.8
		c0,0-0.5,1.2-1.4,3.3c-0.7,1.7-1.7,3.9-2.8,6.4c-0.1,0.3-0.2,0.5-0.3,0.8c-0.8,1.9-1.7,3.9-2.7,6c-5.1,11.1-11.7,24.1-15.7,27
		c-14.3,10.3-46.8,43.5-46.8,43.5l-16-10.6c0,0,25.4-25.8,33-34.3c9.3-10.4,16.4-13.2,17.5-24c0.7-7.2,0-30.9,0-31.2
		c-1.2-11.7-2.2-27,0.3-32.4C869.7,185.5,910.8,211.9,910.8,211.9z"/>
	<path class="st1" d="M934.9,265.8c1-6.5-4.5-23.5-8.7-34.3c-6.6-17.1-16.2-38.9-16.2-38.9s-41.3-6.3-41.7-1.4
		c-0.7,9.4,19.5,40.5,22.3,44.8l-0.1,0c0,0,10.7,12.4,15.4,18.1c7.4,9,4.9,10.7,7.2,23c2,11.1,15.2,67.5,15.2,67.5l18.1-6.6
		C946.4,338.2,933.6,274.6,934.9,265.8z"/>
	<path class="st1" d="M908,162.9c-0.9,10.2-0.6,15.4,2.7,31.5c0,0-7.3,5.2-44.7,15c-6.6-48.3,0.7-87.6,0.7-87.6
		c2.7-12.5,6.8-15.3,14.9-22.8c0,0,1.7-0.1,14.6,7.1c0.9,0.5,5.6,7.8,8.9,16C913.4,142.7,909.1,151.6,908,162.9z"/>
	<path class="st22" d="M890.2,156.2c-1.3,0.4-2.6,0.6-3.9,0.6c-0.3,0-0.6,0-0.9-0.1c-13.9-1.6-20.6-39.7-10.4-46.9
		c0,0,6-3.8,11.4-2.2c5.4,1.6,11.5,5.4,15.2,18C907.6,145.9,897.6,154.1,890.2,156.2z"/>
	<path class="st14" d="M895.3,96.3c0,0.8,0.1,1.9,0.2,3c-5-2.7-9.2-6.4-10.5-7.6C887.3,93.6,895.3,96.3,895.3,96.3z"/>
	<path class="st0" d="M907.3,68.4c0,0,3.6,7.2,1.6,8.3c-1.6,0.8,1.5,7.9,1.9,9.1c0.4,1.2-3,1.8-3.7,2.6c-0.7,0.7-3.2,9.6-6,9.8
		c-2.8,0.2-15-4.6-18.2-8.2c-3.2-3.6-5.3-19.3-2.8-25.8C882.6,57.7,900.9,55.7,907.3,68.4z"/>
	<path class="st35" d="M908,69.9c0,0,1.2-3.3-5.8-9.3c-7-6-17.6-0.6-19.1-0.3c-1.5,0.3-8.8,6.6-6.4,15.4c4.1,14.8,4.6,14.3,4.6,14.3
		s1-8.8,3.7-9.3c3-0.6,7.8-1,7.8-1s-2.3-6.7,1.7-7.5C898.6,71.4,904.1,68.2,908,69.9z"/>
	<path class="st0" d="M891.1,80.1c-0.2-0.8-0.9-4.3-3.7-3.9c-2.8,0.4-2,4.7,0,7.3C889.5,86.1,892.1,84.5,891.1,80.1z"/>
	<path class="st13" d="M909,69.9c0,0-5.5-21.8-24.3-14.6c-21.8,8.4-6,27.2-6,27.2S884.9,73.7,909,69.9z"/>
	<path class="st13" d="M908.4,68c0,0,3.1,0.4,5,1c5.9,2-13.5,2.7-15.2,3.2C882.3,77.2,908.4,68,908.4,68z"/>
	<path class="st36" d="M898.3,245.2c-0.1,0.3-0.2,0.5-0.3,0.8c-0.8,1.9-1.7,3.9-2.7,6c-9.4-16.4-15.9-34.2-16-34.4
		C884.9,228.1,898.3,245.2,898.3,245.2z"/>
	<path class="st22" d="M881.6,99l0.1-1.7l14.5,6.6l0,2.3L881.6,99z"/>
	<path class="st37" d="M903.4,249c-8.5,0-15.4-7.8-15.4-17.4c0-9.6,6.9-17.4,15.4-17.4c8.5,0,15.4,7.8,15.4,17.4
		C918.8,241.2,911.9,249,903.4,249z M903.4,215.5c-7.7,0-14.1,7.2-14.1,16.1c0,8.9,6.3,16.1,14.1,16.1c7.8,0,14.1-7.2,14.1-16.1
		S911.2,215.5,903.4,215.5z"/>
	<path class="st38" d="M919.4,233.9h-32v41.7h32V233.9z"/>
	<path class="st39" d="M919.4,245.5h-32v30h32V245.5z"/>
	<path class="st37" d="M919.4,273.9h-32v1.6h32V273.9z"/>
	<path class="st0" d="M899.8,224.7c0,0-1.2-0.8-1.6-1.3c0,0-0.5-1.1-0.9-1.8c-0.1-0.2-0.2-0.4-0.4-0.6c-0.4-0.5-1.5-1.5-2-3
		c-0.6-1.5-1.1-8.3-1.1-8.3l4.3-1.3l3.8-1.7c0,0,8.4,6.2,9.1,7.5c0.1,0.1,0.1,0.3,0.2,0.4c0.5,1.2,0.3,2.2,0.4,2.8
		c0.1,0.2,0.5,2.6-0.1,3.1c-0.8,0.7-1.7,1-2.4,0.9c0,0-1.6,1.4-3.1,1.5c0,0-1.4,1.3-3.4,1C902.6,224,901,225.1,899.8,224.7z"/>
	<path class="st22" d="M891.4,121.3c0,0,2.9-15.2-10.7-13.5c-13.3,1.7-9.4,13.7-12.1,46.4c0,0-0.2,10,2.4,16.2
		c4,9.8,21.4,39.8,22.5,43l9.5-6.9c0,0-7.7-15.5-10.2-23.7s-8.2-21.2-8.2-21.2L891.4,121.3z"/>
	<path class="st40" d="M890.2,156.2c-1.3,0.4-2.6,0.6-3.9,0.6c-0.3,0-0.6,0-0.9-0.1l4.1-24.3L890.2,156.2z"/>
	<path class="st41" d="M971.5,181.6l-17.5-7.2l2.2-5.2l17.5,7.2L971.5,181.6z"/>
	<path class="st41" d="M951.6,197.7l10.5-24.5l4.6,1.9l-10.5,24.5L951.6,197.7z"/>
	<path class="st9" d="M965.4,184.4c0,0-6.3-3.4-6.9-2.4c-0.7,0.9-0.4,1.7-0.4,1.7l-3.2-0.2c0,0-2.2,1-0.4,3.1c0,0-2.2,0.7-0.2,2.6
		c0,0-1.2,1.1-0.5,2.1s4.9,3,4.9,3s1.1,0,1.6-1.7c0.5-0.1,1-0.3,1.3-0.7c0.4-0.3,0.6-0.8,0.7-1.3c0,0,1.3-0.4,1.6-2.2
		c0,0,2.9-1.1,2.2-3.6C966,184.8,965.7,184.5,965.4,184.4z"/>
	<path class="st0" d="M955.6,177.8c0,0,2.8,4,3.3,6.8c0.1,0.6,0.1,1.3-0.4,1.6c-0.6,0.3-1.8,0-3.1-1.7c-1.3-1.7-3.7-3.2-3.7-3.2
		S950.8,179.2,955.6,177.8z"/>
	<path class="st38" d="M959.8,163c0,0,5.8-2.5,10.7-1c4.9,1.6,7.3,2.7,7.3,2.7l1.7-3.9l-15.9-6.6L959.8,163z"/>
</g>
<ellipse class="st42" cx="555" cy="354.7" rx="511.8" ry="32.5"/>
</svg>
