<svg width="224" height="63" viewBox="0 0 224 63" fill="none" xmlns="http://www.w3.org/2000/svg">
    <path d="M11.3623 42.6293C10.172 42.6293 9.30628 42.4306 8.76522 41.9338C8.33237 41.4369 8.00773 40.4432 8.00773 39.052C8.00773 38.1577 8.11594 36.9653 8.33237 35.4748C8.54879 33.9842 8.87343 31.9968 9.41449 29.4132C10.2802 24.6435 10.9295 20.5694 11.4705 17.0915C11.7952 14.9054 11.9034 13.1167 11.9034 11.6262C11.9034 10.235 11.3623 9.6388 10.2802 9.6388C9.41449 9.6388 8.44058 10.0363 7.14203 10.8312C5.95169 11.6262 4.65314 12.918 3.24638 14.6073C2.70531 15.3028 2.27246 15.6009 1.62319 15.6009C1.19034 15.6009 0.757488 15.4022 0.43285 15.0047C0.108213 14.6073 0 14.1104 0 13.6136C0 13.1167 0.108213 12.6199 0.324638 12.123C0.541063 11.6262 0.8657 11.03 1.40676 10.4338C3.02995 8.44637 4.76135 6.85647 6.70918 5.76341C8.657 4.67035 10.6048 4.07413 12.5527 4.07413C14.3923 4.07413 15.6908 4.57098 16.6647 5.66404C17.6386 6.7571 18.1797 8.24763 18.1797 10.235C18.1797 11.03 18.0715 12.0237 17.9633 13.1167C17.7469 14.2098 17.6386 15.1041 17.5304 15.7997C17.4222 16.4953 17.314 16.9921 17.2058 17.2902C19.0454 12.4211 21.2097 8.94322 23.4821 7.0552C25.8628 5.06782 28.3517 4.07413 31.1652 4.07413C33.3295 4.07413 34.9527 4.76972 36.143 6.16088C37.4415 7.55205 37.9826 9.53943 37.9826 12.0237C37.9826 13.0173 37.8744 14.2098 37.5498 15.7003C39.1729 11.5268 41.1208 8.54574 43.285 6.7571C45.4493 4.96845 48.0464 4.07413 50.8599 4.07413C53.1324 4.07413 54.8638 4.76972 56.1623 6.06151C57.4609 7.45268 58.0019 9.34069 58.0019 11.7256C58.0019 13.0174 57.7855 14.7066 57.3527 16.5946L54.3227 29.5126C53.9981 31.0032 53.7816 32.295 53.7816 33.388C53.7816 34.6798 54.1063 35.5741 54.7556 36.2697C55.4048 36.8659 56.2705 37.2634 57.4609 37.2634C58.543 37.2634 59.6251 36.9653 60.599 36.2697C61.6812 35.5741 62.8715 34.4811 64.2783 32.9905C64.7111 32.5931 65.144 32.3943 65.5768 32.3943C66.0097 32.3943 66.3343 32.5931 66.5507 32.8912C66.7671 33.2886 66.9836 33.7855 66.9836 34.3817C66.9836 35.5741 66.6589 36.4685 66.0097 37.164C64.2783 39.0521 62.6551 40.4432 60.9237 41.3375C59.3005 42.2319 57.4609 42.6293 55.6213 42.6293C52.8077 42.6293 50.6435 41.8344 49.1285 40.3438C47.5053 38.8533 46.7478 36.7666 46.7478 34.183C46.7478 32.3943 47.1807 29.8107 47.9382 26.4322L49.886 18.1845C49.9942 17.8864 50.1024 17.3896 50.2106 16.694C50.4271 15.9984 50.5353 15.4022 50.6435 14.7066C50.7517 14.1104 50.7517 13.4148 50.7517 12.8186C50.7517 11.7256 50.5353 11.03 50.1024 10.4338C49.6696 9.93691 49.0203 9.6388 48.2628 9.6388C46.7478 9.6388 45.1246 10.5331 43.3932 12.4211C41.77 14.2098 40.1469 17.1909 38.5237 21.4637C37.0087 25.6372 35.8184 31.2019 34.8444 37.8596C34.628 39.6483 34.1952 40.8407 33.6541 41.5363C33.113 42.1325 32.1391 42.4306 30.9488 42.4306C29.8667 42.4306 29.001 42.2319 28.4599 41.735C27.9188 41.2382 27.7024 40.3438 27.7024 39.052C27.7024 37.8596 27.9188 36.1703 28.2435 34.183C28.5681 32.1956 29.1092 29.8107 29.6502 27.1278C31.1652 19.8738 31.9227 15.1041 31.9227 13.0173C31.9227 11.8249 31.7063 11.03 31.1652 10.5331C30.7324 10.0363 29.9749 9.73817 29.001 9.73817C27.3778 9.73817 25.7546 10.5331 24.0232 12.2224C22.2918 13.9117 20.6686 16.8927 19.0454 21.1656C17.4222 25.4385 16.1237 31.2019 15.0415 38.4558C14.8251 39.9464 14.5005 41.0394 13.9594 41.6356C13.5266 42.3312 12.6609 42.6293 11.3623 42.6293ZM88.7343 32.4937C89.1671 32.4937 89.4918 32.6924 89.7082 33.0899C89.9246 33.4874 90.1411 33.8849 90.1411 34.4811C90.1411 35.1767 90.0328 35.6735 89.8164 36.071C89.6 36.4685 89.2754 36.7666 88.7343 37.0647L79.3198 42.9274C78.0213 49.1877 76.3981 54.0568 74.4502 57.6341C72.5024 61.2114 69.9053 63 66.7671 63C65.144 63 63.7372 62.5032 62.6551 61.5095C61.5729 60.6151 61.0319 59.3233 61.0319 57.8328C61.0319 56.4416 61.3565 54.9511 62.114 53.4606C62.8715 51.97 64.17 50.2808 66.0097 48.3927C67.9575 46.5047 70.6628 44.3186 74.1256 41.8344L74.2338 40.8407C74.4502 39.7476 74.7749 38.1577 74.9913 36.071C74.342 38.2571 73.3681 39.847 72.286 41.0394C71.0956 42.1325 69.9053 42.7287 68.4986 42.7287C66.9836 42.7287 65.7932 42.1325 64.8193 40.8407C63.9536 39.5489 63.4126 38.0584 63.4126 36.1703C63.4126 33.8849 63.629 31.8975 63.9536 30.0095C64.2783 28.1215 64.8193 26.1341 65.5768 24.0473C65.9014 23.153 66.3343 22.4574 66.9836 22.0599C67.5246 21.6625 68.4986 21.4637 69.7971 21.4637C70.5546 21.4637 70.9874 21.5631 71.3121 21.7618C71.6367 21.9606 71.7449 22.2587 71.7449 22.7555C71.7449 22.9543 71.5285 23.8486 71.2039 25.2397C70.8792 26.3328 70.6628 27.3265 70.4464 28.2208C70.2299 29.4132 69.9053 30.6057 69.7971 31.7981C69.5807 32.8912 69.4725 33.7855 69.4725 34.5804C69.4725 35.7729 69.7971 36.2697 70.5546 36.2697C71.0956 36.2697 71.6367 35.7729 72.3942 34.8786C73.1517 33.9842 73.9092 32.5931 74.7749 30.8044C75.6406 29.0158 76.3981 26.7303 77.2638 24.0473C77.4802 23.153 77.913 22.4574 78.4541 22.0599C78.9952 21.6625 79.8609 21.4637 80.943 21.4637C81.7005 21.4637 82.2415 21.5631 82.5662 21.7618C82.8908 21.9606 82.999 22.2587 82.999 22.6562C82.999 23.4511 82.5662 26.0347 81.7005 30.4069L80.4019 37.6609C82.8908 35.8722 85.3797 34.2823 87.7604 32.8912C88.085 32.5931 88.4097 32.4937 88.7343 32.4937ZM67.2 58.6278C68.0657 58.6278 68.9314 57.7334 69.9053 56.0442C70.8792 54.2555 71.9613 51.3738 72.9353 47.2997C70.4464 49.2871 68.6068 51.0757 67.4164 52.6656C66.3343 54.2555 65.7932 55.7461 65.7932 56.9385C65.7932 57.4353 65.9014 57.8328 66.1179 58.2303C66.3343 58.429 66.7671 58.6278 67.2 58.6278ZM150.199 22.9543C150.957 22.9543 151.498 23.153 151.822 23.4511C152.147 23.7492 152.363 24.1467 152.363 24.6435C152.363 25.4385 152.147 26.1341 151.606 26.7303C151.065 27.3265 150.307 27.6246 149.225 27.724C146.628 27.724 144.356 27.5252 142.191 27.2271C139.919 31.6987 137.105 35.4748 133.859 38.4558C130.613 41.4369 127.474 42.9274 124.336 42.9274C121.414 42.9274 119.25 41.5363 117.843 38.7539C116.437 35.9716 115.571 32.0962 115.355 27.4259C113.407 32.6924 111.134 36.5678 108.645 39.1514C106.157 41.735 103.559 43.0268 100.746 43.0268C97.6077 43.0268 95.2271 41.2382 93.6039 37.6609C91.9807 34.0836 91.2232 29.2145 91.2232 23.153C91.2232 18.6814 91.656 13.9117 92.5217 8.54574C92.7382 7.0552 93.171 5.96214 93.7121 5.4653C94.3613 4.86909 95.3353 4.57098 96.6338 4.57098C97.6077 4.57098 98.3652 4.76972 98.9063 5.16719C99.4473 5.56467 99.772 6.26025 99.772 7.35331C99.772 7.55205 99.772 7.94953 99.6638 8.54574C98.6898 14.7066 98.1488 19.9732 98.1488 24.3454C98.1488 28.4196 98.4734 31.5 99.2309 33.6861C99.9884 35.8722 100.962 36.9653 102.261 36.9653C103.451 36.9653 104.75 35.8722 106.373 33.6861C107.996 31.5 109.619 28.2208 111.243 23.8486C112.866 19.4763 114.164 14.3091 115.355 8.24763C115.571 6.85647 116.112 5.96214 116.761 5.36593C117.519 4.86908 118.493 4.57098 119.683 4.57098C120.657 4.57098 121.414 4.76972 121.847 5.16719C122.388 5.56467 122.605 6.16088 122.605 6.95584C122.605 7.45268 122.605 7.85016 122.497 8.04889C121.631 12.918 121.09 17.8864 121.09 22.7555C121.09 26.1341 121.198 28.7177 121.414 30.705C121.631 32.6924 122.172 34.183 122.821 35.276C123.579 36.2697 124.553 36.7666 125.959 36.7666C127.583 36.7666 129.314 35.6735 131.262 33.4874C133.21 31.3013 134.941 28.5189 136.564 25.3391C134.616 24.1467 133.101 22.7555 132.019 20.8675C131.045 19.0789 130.504 16.8927 130.504 14.5079C130.504 12.123 130.937 10.1356 131.695 8.54574C132.56 6.85647 133.643 5.66404 134.941 4.86908C136.348 4.07413 137.863 3.67666 139.594 3.67666C141.65 3.67666 143.382 4.37224 144.572 5.76341C145.871 7.15457 146.412 9.04259 146.412 11.4274C146.412 14.806 145.654 18.582 144.031 22.7555C145.979 22.7555 147.927 22.9543 150.199 22.9543ZM135.699 14.011C135.699 16.9921 136.781 19.1782 138.837 20.5694C140.135 17.1909 140.785 14.4085 140.785 12.2224C140.785 10.9306 140.568 10.0363 140.243 9.44006C139.919 8.84385 139.378 8.54574 138.728 8.54574C137.863 8.54574 137.105 9.04259 136.564 10.0363C136.023 10.9306 135.699 12.3218 135.699 14.011ZM173.357 28.5189C173.789 28.5189 174.114 28.7177 174.33 29.1151C174.547 29.5126 174.655 30.0095 174.655 30.6057C174.655 32.0962 174.222 32.8912 173.248 33.1893C171.3 33.7855 169.136 34.183 166.756 34.2823C166.106 36.7666 164.916 38.8533 163.076 40.3438C161.237 41.8344 159.181 42.6293 156.8 42.6293C154.852 42.6293 153.121 42.2319 151.714 41.3375C150.307 40.4432 149.333 39.3502 148.576 37.8596C147.818 36.3691 147.494 34.8786 147.494 33.1893C147.494 30.9038 147.927 28.9164 148.9 27.1278C149.874 25.3391 151.173 23.948 152.796 22.9543C154.419 21.9606 156.367 21.4637 158.315 21.4637C160.804 21.4637 162.86 22.2587 164.267 23.8486C165.782 25.4385 166.756 27.3265 166.972 29.7114C168.487 29.612 170.327 29.3139 172.491 28.817C172.924 28.6183 173.14 28.5189 173.357 28.5189ZM157.125 37.8596C158.207 37.8596 159.072 37.4621 159.83 36.6672C160.587 35.8722 161.128 34.7792 161.453 33.2886C160.479 32.6924 159.614 31.7981 159.072 30.8044C158.531 29.8107 158.315 28.7177 158.315 27.5252C158.315 27.0284 158.315 26.5315 158.423 26.0347H158.207C156.908 26.0347 155.826 26.6309 154.96 27.8233C154.095 29.0158 153.662 30.6057 153.662 32.6924C153.662 34.3817 153.986 35.5741 154.744 36.4685C155.393 37.4621 156.259 37.8596 157.125 37.8596ZM222.593 32.3943C223.026 32.3943 223.351 32.5931 223.567 32.8912C223.784 33.2886 224 33.7855 224 34.3817C224 35.5741 223.675 36.5678 223.026 37.164C221.511 38.8533 220.104 40.1451 218.589 41.1388C217.074 42.1325 215.343 42.6293 213.179 42.6293C210.69 42.6293 208.634 41.9338 207.119 40.642C205.604 39.3502 204.846 37.5615 204.846 35.3754C204.846 34.183 205.496 33.388 206.794 32.8912C208.201 32.295 209.283 31.6987 209.932 31.1025C210.582 30.4069 210.906 29.612 210.906 28.7177C210.906 28.2208 210.798 27.724 210.473 27.5252C210.257 27.2271 209.932 27.1278 209.608 27.1278C208.742 27.1278 207.768 27.724 206.686 28.9164C205.604 30.1088 204.63 31.5994 203.764 33.4874C202.899 35.276 202.141 37.2634 201.6 39.1514C201.275 40.5426 200.843 41.5363 200.301 42.0331C199.869 42.53 199.111 42.7287 198.137 42.7287C197.163 42.7287 196.406 42.4306 195.865 41.735C195.432 41.0394 195.107 39.9464 194.891 38.5552C194.674 37.164 194.674 35.0773 194.674 32.295C194.674 27.6246 195.215 22.8549 196.189 17.7871C197.271 12.7192 198.786 8.54574 200.734 5.16719C202.79 1.68927 205.171 0 207.985 0C209.499 0 210.69 0.596214 211.664 1.78864C212.638 2.98107 213.071 4.47161 213.071 6.35962C213.071 9.44006 212.097 12.5205 210.149 15.7997C208.201 19.0789 205.063 22.8549 200.734 27.2271C200.626 28.817 200.626 30.4069 200.626 32.0962C202.249 28.3202 203.981 25.6372 206.037 23.948C208.093 22.2587 209.932 21.3644 211.772 21.3644C213.395 21.3644 214.694 21.8612 215.668 22.8549C216.642 23.8486 217.183 25.1404 217.183 26.6309C217.183 28.3202 216.75 29.8107 215.776 31.2019C214.91 32.5931 213.287 33.7855 211.014 34.8786C211.123 35.6735 211.556 36.3691 212.205 36.8659C212.854 37.3628 213.72 37.5615 214.694 37.5615C215.668 37.5615 216.642 37.164 217.615 36.4685C218.589 35.7729 219.78 34.5804 221.403 32.8912C221.728 32.5931 222.16 32.3943 222.593 32.3943ZM206.902 4.47161C206.361 4.47161 205.604 5.26656 204.955 6.85647C204.197 8.347 203.548 10.5331 202.79 13.1167C202.141 15.7003 201.6 18.582 201.167 21.6625C203.223 19.4763 204.846 17.0915 206.145 14.5079C207.443 11.9243 208.201 9.53943 208.201 7.45268C208.201 6.45899 208.093 5.76341 207.876 5.26656C207.66 4.67035 207.335 4.47161 206.902 4.47161Z" fill="#ffffff"/>
    <path d="M190.672 26.9272C190.888 26.1467 191.105 25.3662 191.105 24.0979C191.105 22.1467 190.023 21.171 187.859 21.171C186.776 21.171 185.586 21.4637 184.288 22.1467C182.989 22.8296 181.69 24.0004 180.392 25.5614C179.093 27.1224 177.795 29.2687 176.713 31.8053C176.821 30.537 177.037 29.3663 177.254 28.4882C177.47 27.6102 177.687 26.537 178.011 25.3662C178.552 23.7077 178.769 22.6345 178.769 22.1467C178.769 21.7564 178.66 21.4637 178.336 21.2686C178.011 21.171 177.578 21.0735 176.929 21.0735C175.739 21.0735 174.765 21.2686 174.116 21.6589C173.466 22.0491 173.033 22.6345 172.709 23.5125C171.518 26.9272 170.869 30.6346 170.869 34.4395C170.869 37.0737 171.086 38.9274 171.627 40.0982C172.168 41.2689 173.033 41.8543 174.332 41.8543C175.306 41.8543 176.063 41.5616 176.496 41.1713C177.037 40.6835 177.362 39.7079 177.795 38.342C178.336 36.4883 178.877 34.8298 179.743 33.1712C180.5 31.5127 181.366 30.2443 182.123 29.2687C182.989 28.2931 183.638 27.8053 184.071 27.8053C184.179 27.8053 184.287 27.9029 184.396 27.9029C185.586 28.3907 184.829 30.8297 186.127 32.0005C186.993 32.781 188.832 32.9761 189.806 32.3907C190.888 31.8053 189.698 30.4395 190.672 26.9272Z" fill="#ffffff"/>
    <path d="M197.164 27.415C197.164 28.1955 196.407 28.7808 195.757 29.0735C194.242 29.6589 192.186 28.6833 192.078 27.8052C192.078 27.1223 193.16 26.5369 194.351 25.9515C195.216 25.5613 195.433 25.5613 195.649 25.5613C196.515 25.7564 197.164 26.6345 197.164 27.415Z" fill="#ffffff"/>
</svg>
