<svg width="195" height="55" viewBox="0 0 195 55" fill="none" xmlns="http://www.w3.org/2000/svg">
<path d="M9.8913 37.1104C8.85507 37.1104 8.10145 36.9374 7.63044 36.5048C7.25362 36.0723 6.97101 35.2073 6.97101 33.9962C6.97101 33.2177 7.06522 32.1796 7.25362 30.882C7.44203 29.5845 7.72464 27.8544 8.19565 25.6053C8.94928 21.4531 9.51449 17.9064 9.98551 14.8787C10.2681 12.9757 10.3623 11.4186 10.3623 10.121C10.3623 8.90995 9.8913 8.39092 8.94928 8.39092C8.19565 8.39092 7.34783 8.73694 6.21739 9.42897C5.18116 10.121 4.05072 11.2456 2.82609 12.7161C2.35507 13.3217 1.97826 13.5812 1.41304 13.5812C1.03623 13.5812 0.65942 13.4082 0.376812 13.0622C0.0942029 12.7161 0 12.2836 0 11.8511C0 11.4186 0.0942029 10.9861 0.282609 10.5535C0.471014 10.121 0.753623 9.60198 1.22464 9.08296C2.63768 7.35287 4.14493 5.9688 5.84058 5.01725C7.53623 4.0657 9.23188 3.54668 10.9275 3.54668C12.529 3.54668 13.6594 3.9792 14.5072 4.93075C15.3551 5.88229 15.8261 7.17986 15.8261 8.90995C15.8261 9.60198 15.7319 10.467 15.6377 11.4186C15.4493 12.3701 15.3551 13.1487 15.2609 13.7542C15.1667 14.3597 15.0725 14.7922 14.9783 15.0518C16.5797 10.813 18.4638 7.78539 20.442 6.14181C22.5145 4.41172 24.6812 3.54668 27.1304 3.54668C29.0145 3.54668 30.4275 4.15221 31.4638 5.36327C32.5942 6.57433 33.0652 8.30442 33.0652 10.467C33.0652 11.3321 32.971 12.3701 32.6884 13.6677C34.1015 10.0345 35.7971 7.43937 37.6812 5.88229C39.5652 4.32522 41.8261 3.54668 44.2754 3.54668C46.2536 3.54668 47.7609 4.15221 48.8913 5.27676C50.0217 6.48782 50.4928 8.13141 50.4928 10.2075C50.4928 11.3321 50.3043 12.8026 49.9275 14.4462L47.2899 25.6918C47.0072 26.9894 46.8188 28.1139 46.8188 29.0655C46.8188 30.19 47.1014 30.9686 47.6667 31.5741C48.2319 32.0931 48.9855 32.4391 50.0217 32.4391C50.9638 32.4391 51.9058 32.1796 52.7536 31.5741C53.6957 30.9686 54.7319 30.017 55.9565 28.7194C56.3333 28.3734 56.7101 28.2004 57.087 28.2004C57.4638 28.2004 57.7464 28.3734 57.9348 28.6329C58.1232 28.979 58.3116 29.4115 58.3116 29.9305C58.3116 30.9686 58.029 31.7471 57.4638 32.3526C55.9565 33.9962 54.5435 35.2073 53.0362 35.9858C51.6232 36.7643 50.0217 37.1104 48.4203 37.1104C45.971 37.1104 44.087 36.4183 42.7681 35.1208C41.3551 33.8232 40.6957 32.0066 40.6957 29.7575C40.6957 28.2004 41.0725 25.9513 41.7319 23.0102L43.4275 15.8303C43.5217 15.5708 43.6159 15.1383 43.7101 14.5327C43.8986 13.9272 43.9928 13.4082 44.087 12.8026C44.1812 12.2836 44.1812 11.6781 44.1812 11.1591C44.1812 10.2075 43.9928 9.60198 43.6159 9.08296C43.2391 8.65043 42.6739 8.39092 42.0145 8.39092C40.6957 8.39092 39.2826 9.16946 37.7754 10.813C36.3623 12.3701 34.9493 14.9653 33.5362 18.6849C32.2174 22.3181 31.1812 27.1624 30.3333 32.9582C30.1449 34.5152 29.7681 35.5533 29.2971 36.1588C28.8261 36.6778 27.9783 36.9374 26.942 36.9374C26 36.9374 25.2464 36.7643 24.7754 36.3318C24.3043 35.8993 24.1159 35.1208 24.1159 33.9962C24.1159 32.9581 24.3043 31.4876 24.587 29.7575C24.8696 28.0274 25.3406 25.9513 25.8116 23.6157C27.1304 17.3009 27.7899 13.1487 27.7899 11.3321C27.7899 10.294 27.6014 9.60198 27.1304 9.16946C26.7536 8.73694 26.0942 8.47742 25.2464 8.47742C23.8333 8.47742 22.4203 9.16946 20.913 10.64C19.4058 12.1106 17.9928 14.7057 16.5797 18.4254C15.1667 22.1451 14.0362 27.1624 13.0942 33.4772C12.9058 34.7747 12.6232 35.7263 12.1522 36.2453C11.7754 36.8508 11.0217 37.1104 9.8913 37.1104ZM77.2464 28.2869C77.6232 28.2869 77.9058 28.4599 78.0942 28.8059C78.2826 29.152 78.471 29.498 78.471 30.017C78.471 30.6225 78.3768 31.0551 78.1884 31.4011C78 31.7471 77.7174 32.0066 77.2464 32.2661L69.0507 37.3699C67.9203 42.8196 66.5072 47.0584 64.8116 50.1725C63.1159 53.2867 60.8551 54.8438 58.1232 54.8438C56.7101 54.8438 55.4855 54.4112 54.5435 53.5462C53.6015 52.7676 53.1304 51.6431 53.1304 50.3455C53.1304 49.1345 53.413 47.8369 54.0725 46.5393C54.7319 45.2418 55.8623 43.7712 57.4638 42.1276C59.1594 40.484 61.5145 38.5809 64.529 36.4183L64.6232 35.5533C64.8116 34.6017 65.0942 33.2177 65.2826 31.4011C64.7174 33.3042 63.8696 34.6882 62.9275 35.7263C61.8913 36.6778 60.8551 37.1969 59.6304 37.1969C58.3116 37.1969 57.2754 36.6778 56.4275 35.5533C55.6739 34.4287 55.2029 33.1312 55.2029 31.4876C55.2029 29.498 55.3913 27.7679 55.6739 26.1243C55.9565 24.4807 56.4275 22.7506 57.087 20.934C57.3696 20.1555 57.7464 19.55 58.3116 19.204C58.7826 18.8579 59.6304 18.6849 60.7609 18.6849C61.4203 18.6849 61.7971 18.7714 62.0797 18.9445C62.3623 19.1175 62.4565 19.377 62.4565 19.8095C62.4565 19.9825 62.2681 20.761 61.9855 21.9721C61.7029 22.9237 61.5145 23.7887 61.3261 24.5672C61.1377 25.6053 60.8551 26.6433 60.7609 27.6814C60.5725 28.6329 60.4783 29.4115 60.4783 30.1035C60.4783 31.1416 60.7609 31.5741 61.4203 31.5741C61.8913 31.5741 62.3623 31.1416 63.0217 30.363C63.6812 29.5845 64.3406 28.3734 65.0942 26.8163C65.8478 25.2593 66.5072 23.2697 67.2609 20.934C67.4493 20.1555 67.8261 19.55 68.2971 19.204C68.7681 18.8579 69.5217 18.6849 70.4638 18.6849C71.1232 18.6849 71.5942 18.7714 71.8768 18.9445C72.1594 19.1175 72.2536 19.377 72.2536 19.723C72.2536 20.415 71.8768 22.6641 71.1232 26.4703L69.9928 32.7851C72.1594 31.2281 74.3261 29.844 76.3986 28.6329C76.6812 28.3734 76.9638 28.2869 77.2464 28.2869ZM58.5 51.0376C59.2536 51.0376 60.0072 50.259 60.8551 48.7884C61.7029 47.2314 62.6449 44.7227 63.4928 41.1761C61.3261 42.9062 59.7246 44.4632 58.6884 45.8473C57.7464 47.2314 57.2754 48.5289 57.2754 49.567C57.2754 49.9995 57.3696 50.3455 57.558 50.6915C57.7464 50.8646 58.1232 51.0376 58.5 51.0376ZM130.754 19.9825C131.413 19.9825 131.884 20.1555 132.167 20.415C132.449 20.6745 132.638 21.0206 132.638 21.4531C132.638 22.1451 132.449 22.7506 131.978 23.2697C131.507 23.7887 130.848 24.0482 129.906 24.1347C127.645 24.1347 125.667 23.9617 123.783 23.7022C121.804 27.5949 119.355 30.882 116.529 33.4772C113.703 36.0723 110.971 37.3699 108.239 37.3699C105.696 37.3699 103.812 36.1588 102.587 33.7367C101.362 31.3146 100.609 27.9409 100.42 23.8752C98.7246 28.4599 96.7464 31.8336 94.5797 34.0827C92.413 36.3318 90.1522 37.4564 87.7029 37.4564C84.971 37.4564 82.8986 35.8993 81.4855 32.7851C80.0725 29.671 79.413 25.4323 79.413 20.1555C79.413 16.2628 79.7899 12.1106 80.5435 7.43937C80.7319 6.14181 81.1087 5.19026 81.5797 4.75774C82.1449 4.23871 82.9928 3.9792 84.1232 3.9792C84.971 3.9792 85.6304 4.15221 86.1015 4.49823C86.5725 4.84424 86.8551 5.44977 86.8551 6.40132C86.8551 6.57433 86.8551 6.92035 86.7609 7.43937C85.913 12.8026 85.442 17.3874 85.442 21.1936C85.442 24.7402 85.7246 27.4219 86.3841 29.325C87.0435 31.2281 87.8913 32.1796 89.0217 32.1796C90.058 32.1796 91.1884 31.2281 92.6015 29.325C94.0145 27.4219 95.4275 24.5672 96.8406 20.761C98.2536 16.9548 99.3841 12.4566 100.42 7.17986C100.609 5.9688 101.08 5.19026 101.645 4.67123C102.304 4.23871 103.152 3.9792 104.188 3.9792C105.036 3.9792 105.696 4.15221 106.072 4.49823C106.543 4.84424 106.732 5.36327 106.732 6.0553C106.732 6.48782 106.732 6.83384 106.638 7.00685C105.884 11.2456 105.413 15.5708 105.413 19.8095C105.413 22.7506 105.507 24.9998 105.696 26.7298C105.884 28.4599 106.355 29.7575 106.92 30.709C107.58 31.5741 108.428 32.0066 109.652 32.0066C111.065 32.0066 112.572 31.0551 114.268 29.152C115.964 27.2489 117.471 24.8267 118.884 22.0586C117.188 21.0206 115.87 19.8095 114.928 18.1659C114.08 16.6088 113.609 14.7057 113.609 12.6296C113.609 10.5535 113.986 8.82344 114.645 7.43937C115.399 5.9688 116.341 4.93075 117.471 4.23871C118.696 3.54668 120.014 3.20066 121.522 3.20066C123.312 3.20066 124.819 3.80619 125.855 5.01725C126.986 6.22831 127.457 7.87189 127.457 9.948C127.457 12.8891 126.797 16.1763 125.384 19.8095C127.08 19.8095 128.775 19.9825 130.754 19.9825ZM118.13 12.1971C118.13 14.7922 119.072 16.6953 120.862 17.9064C121.993 14.9653 122.558 12.5431 122.558 10.64C122.558 9.51548 122.37 8.73694 122.087 8.21791C121.804 7.69889 121.333 7.43937 120.768 7.43937C120.014 7.43937 119.355 7.87189 118.884 8.73694C118.413 9.51548 118.13 10.7265 118.13 12.1971ZM150.913 24.8267C151.29 24.8267 151.572 24.9998 151.761 25.3458C151.949 25.6918 152.043 26.1243 152.043 26.6433C152.043 27.9409 151.667 28.6329 150.819 28.8924C149.123 29.4115 147.239 29.7575 145.167 29.844C144.601 32.0066 143.565 33.8232 141.964 35.1208C140.362 36.4183 138.572 37.1104 136.5 37.1104C134.804 37.1104 133.297 36.7643 132.072 35.9858C130.848 35.2073 130 34.2557 129.341 32.9582C128.681 31.6606 128.399 30.363 128.399 28.8924C128.399 26.9028 128.775 25.1728 129.623 23.6157C130.471 22.0586 131.601 20.8475 133.014 19.9825C134.428 19.1175 136.123 18.6849 137.819 18.6849C139.986 18.6849 141.775 19.377 143 20.761C144.319 22.1451 145.167 23.7887 145.355 25.8648C146.674 25.7783 148.275 25.5188 150.159 25.0863C150.536 24.9132 150.725 24.8267 150.913 24.8267ZM136.783 32.9582C137.725 32.9582 138.478 32.6121 139.138 31.9201C139.797 31.2281 140.268 30.2765 140.551 28.979C139.703 28.4599 138.949 27.6814 138.478 26.8163C138.007 25.9513 137.819 24.9998 137.819 23.9617C137.819 23.5292 137.819 23.0967 137.913 22.6641H137.725C136.594 22.6641 135.652 23.1832 134.899 24.2212C134.145 25.2593 133.768 26.6433 133.768 28.4599C133.768 29.9305 134.051 30.9686 134.71 31.7471C135.275 32.6121 136.029 32.9582 136.783 32.9582ZM193.775 28.2004C194.152 28.2004 194.435 28.3734 194.623 28.6329C194.812 28.979 195 29.4115 195 29.9305C195 30.9686 194.717 31.8336 194.152 32.3526C192.833 33.8232 191.609 34.9478 190.29 35.8128C188.971 36.6778 187.464 37.1104 185.58 37.1104C183.413 37.1104 181.623 36.5048 180.304 35.3803C178.986 34.2557 178.326 32.6986 178.326 30.7955C178.326 29.7575 178.891 29.0655 180.022 28.6329C181.246 28.1139 182.188 27.5949 182.754 27.0759C183.319 26.4703 183.601 25.7783 183.601 24.9998C183.601 24.5672 183.507 24.1347 183.225 23.9617C183.036 23.7022 182.754 23.6157 182.471 23.6157C181.717 23.6157 180.87 24.1347 179.928 25.1728C178.986 26.2108 178.138 27.5084 177.384 29.152C176.63 30.709 175.971 32.4391 175.5 34.0827C175.217 35.2938 174.841 36.1588 174.37 36.5913C173.993 37.0239 173.333 37.1969 172.486 37.1969C171.638 37.1969 170.978 36.9374 170.507 36.3318C170.13 35.7263 169.848 34.7747 169.659 33.5637C169.471 32.3526 169.471 30.536 169.471 28.1139C169.471 24.0482 169.942 19.896 170.79 15.4843C171.732 11.0726 173.051 7.43937 174.746 4.49823C176.536 1.47057 178.609 0 181.058 0C182.377 0 183.413 0.519026 184.261 1.55708C185.109 2.59513 185.486 3.89269 185.486 5.53628C185.486 8.21791 184.638 10.8995 182.942 13.7542C181.246 16.6088 178.514 19.896 174.746 23.7022C174.652 25.0863 174.652 26.4703 174.652 27.9409C176.065 24.6537 177.572 22.3181 179.362 20.8475C181.152 19.377 182.754 18.5984 184.355 18.5984C185.768 18.5984 186.899 19.031 187.746 19.896C188.594 20.761 189.065 21.8856 189.065 23.1832C189.065 24.6537 188.688 25.9513 187.841 27.1624C187.087 28.3734 185.674 29.4115 183.696 30.363C183.79 31.0551 184.167 31.6606 184.732 32.0931C185.297 32.5256 186.051 32.6986 186.899 32.6986C187.746 32.6986 188.594 32.3526 189.442 31.7471C190.29 31.1416 191.326 30.1035 192.739 28.6329C193.022 28.3734 193.399 28.2004 193.775 28.2004ZM180.116 3.89269C179.645 3.89269 178.986 4.58473 178.42 5.9688C177.761 7.26636 177.196 9.16946 176.536 11.4186C175.971 13.6677 175.5 16.1763 175.123 18.8579C176.913 16.9549 178.326 14.8787 179.457 12.6296C180.587 10.3805 181.246 8.30442 181.246 6.48782C181.246 5.62278 181.152 5.01725 180.964 4.58473C180.775 4.0657 180.493 3.89269 180.116 3.89269Z" fill="#F1F3F8"/>
</svg>
