<svg width="69" height="69" viewBox="0 0 69 69" fill="none" xmlns="http://www.w3.org/2000/svg">
<circle cx="34.2958" cy="34.9256" r="34.0741" fill="white"/>
<path d="M41.9626 16.1846H28.333C25.9819 16.1846 24.0737 18.0927 24.0737 20.4438V49.4068C24.0737 51.7579 25.9819 53.666 28.333 53.666H41.9626C44.3137 53.666 46.2219 51.7579 46.2219 49.4068V20.4438C46.2219 18.0927 44.3137 16.1846 41.9626 16.1846ZM35.1478 51.9623C33.7337 51.9623 32.5922 50.8209 32.5922 49.4068C32.5922 47.9927 33.7337 46.8512 35.1478 46.8512C36.5619 46.8512 37.7034 47.9927 37.7034 49.4068C37.7034 50.8209 36.5619 51.9623 35.1478 51.9623ZM42.8145 45.1475H27.4811V21.2957H42.8145V45.1475Z" fill="black" fill-opacity="0.7"/>
</svg>
